#usda 1.0
(
    defaultPrim = "Prop"
    metersPerUnit = 1
    upAxis = "Z"
)

def Xform "Prop" (
    customData = {
        string description = "Original stylized golden lemon with green leaf; body 72 x 48 x 48 mm."
        string origin = "Bottom of visual body at z=0; dimensions in metres."
        string physicsStatus = "Visual geometry only; no collision or rigid-body APIs authored."
        string provenance = "Original procedural geometry authored for the CASCADE kitchen task. No third-party meshes, textures, images, or trademarks."
    }
)
{
    def "Materials"
    {
        def Material "LemonPeel"
        {
            token outputs:surface.connect = </Prop/Materials/LemonPeel/Shader.outputs:surface>

            def Shader "Shader"
            {
                uniform token info:id = "UsdPreviewSurface"
                color3f inputs:diffuseColor = (0.92, 0.59, 0.018)
                float inputs:metallic = 0
                float inputs:roughness = 0.58
                token outputs:surface
            }
        }

        def Material "FreshLeaf"
        {
            token outputs:surface.connect = </Prop/Materials/FreshLeaf/Shader.outputs:surface>

            def Shader "Shader"
            {
                uniform token info:id = "UsdPreviewSurface"
                color3f inputs:diffuseColor = (0.055, 0.22, 0.025)
                float inputs:metallic = 0
                float inputs:roughness = 0.48
                token outputs:surface
            }
        }
    }

    def Mesh "Fruit" (
        prepend apiSchemas = ["MaterialBindingAPI"]
    )
    {
        float3[] extent = [(-0.036, -0.024, -2.0861626e-10), (0.036, 0.024, 0.048)]
        int[] faceVertexCounts = [3, 3, 3, 3, 3, 3, 3, 3, 3, 3, 3, 3, 3, 3, 3, 3, 3, 3, 3, 3, 3, 3, 3, 3, 3, 3, 3, 3, 3, 3, 3, 3, 4, 4, 4, 4, 4, 4, 4, 4, 4, 4, 4, 4, 4, 4, 4, 4, 4, 4, 4, 4, 4, 4, 4, 4, 4, 4, 4, 4, 4, 4, 4, 4, 4, 4, 4, 4, 4, 4, 4, 4, 4, 4, 4, 4, 4, 4, 4, 4, 4, 4, 4, 4, 4, 4, 4, 4, 4, 4, 4, 4, 4, 4, 4, 4, 4, 4, 4, 4, 4, 4, 4, 4, 4, 4, 4, 4, 4, 4, 4, 4, 4, 4, 4, 4, 4, 4, 4, 4, 4, 4, 4, 4, 4, 4, 4, 4, 4, 4, 4, 4, 4, 4, 4, 4, 4, 4, 4, 4, 4, 4, 4, 4, 4, 4, 4, 4, 4, 4, 4, 4, 4, 4, 4, 4, 4, 4, 4, 4, 4, 4, 4, 4, 4, 4, 4, 4, 4, 4, 4, 4, 4, 4, 4, 4, 4, 4, 4, 4, 4, 4, 4, 4, 4, 4, 4, 4, 4, 4, 4, 4, 4, 4, 4, 4, 4, 4, 4, 4, 4, 4, 4, 4, 4, 4, 4, 4, 4, 4, 4, 4, 4, 4, 4, 4, 4, 4, 4, 4, 4, 4, 4, 4, 4, 4, 4, 4, 4, 4, 4, 4, 4, 4, 4, 4, 4, 4, 4, 4, 4, 4, 4, 4, 4, 4, 4, 4, 4, 4, 4, 4, 4, 4, 4, 4, 4, 4, 4, 4, 4, 4, 4, 4, 4, 4, 4, 4, 4, 4, 4, 4, 4, 4, 4, 4, 4, 4, 4, 4, 4, 4, 4, 4, 4, 4, 4, 4, 4, 4, 4, 4, 4, 4, 4, 4, 4, 4, 4, 4, 4, 4, 4, 4, 4, 4, 4, 4, 4, 4, 4, 4, 4, 4, 4, 4, 4, 4, 4, 4, 4, 4, 4, 4, 4, 4, 4, 4, 4, 4, 4, 4, 4, 4, 4, 4, 4, 4, 4, 4, 4, 4, 4, 4, 4, 4, 4, 4, 4, 4, 4, 4, 4, 4, 4, 4, 4, 4, 4, 4, 4, 4, 4, 4, 4, 4, 4, 4, 4, 4, 4, 4, 4, 4, 4, 4, 4, 4, 4, 4, 4, 4, 4, 4, 4, 4, 4, 4, 4, 4, 4, 4, 4, 4, 4, 4, 4, 4, 4, 4, 4, 4, 4, 4, 4, 4, 4, 4, 4, 4, 4, 4, 4, 4, 4, 4, 4, 4, 4, 4, 4, 4, 4, 4, 4, 4, 4, 4, 4, 4, 4, 4, 4, 4, 4, 4, 4, 4, 4, 4, 4, 4, 4, 4, 4, 4, 4, 4, 4, 4, 4, 4, 4, 4, 4, 4, 4, 4, 4, 4, 4, 4, 4, 4, 4, 4, 4, 4, 4, 4, 4, 4, 4, 4, 4, 4, 4, 4, 4, 4, 3, 3, 3, 3, 3, 3, 3, 3, 3, 3, 3, 3, 3, 3, 3, 3, 3, 3, 3, 3, 3, 3, 3, 3, 3, 3, 3, 3, 3, 3, 3, 3]
        int[] faceVertexIndices = [0, 2, 1, 0, 3, 2, 0, 4, 3, 0, 5, 4, 0, 6, 5, 0, 7, 6, 0, 8, 7, 0, 9, 8, 0, 10, 9, 0, 11, 10, 0, 12, 11, 0, 13, 12, 0, 14, 13, 0, 15, 14, 0, 16, 15, 0, 17, 16, 0, 18, 17, 0, 19, 18, 0, 20, 19, 0, 21, 20, 0, 22, 21, 0, 23, 22, 0, 24, 23, 0, 25, 24, 0, 26, 25, 0, 27, 26, 0, 28, 27, 0, 29, 28, 0, 30, 29, 0, 31, 30, 0, 32, 31, 0, 1, 32, 1, 2, 34, 33, 2, 3, 35, 34, 3, 4, 36, 35, 4, 5, 37, 36, 5, 6, 38, 37, 6, 7, 39, 38, 7, 8, 40, 39, 8, 9, 41, 40, 9, 10, 42, 41, 10, 11, 43, 42, 11, 12, 44, 43, 12, 13, 45, 44, 13, 14, 46, 45, 14, 15, 47, 46, 15, 16, 48, 47, 16, 17, 49, 48, 17, 18, 50, 49, 18, 19, 51, 50, 19, 20, 52, 51, 20, 21, 53, 52, 21, 22, 54, 53, 22, 23, 55, 54, 23, 24, 56, 55, 24, 25, 57, 56, 25, 26, 58, 57, 26, 27, 59, 58, 27, 28, 60, 59, 28, 29, 61, 60, 29, 30, 62, 61, 30, 31, 63, 62, 31, 32, 64, 63, 32, 1, 33, 64, 33, 34, 66, 65, 34, 35, 67, 66, 35, 36, 68, 67, 36, 37, 69, 68, 37, 38, 70, 69, 38, 39, 71, 70, 39, 40, 72, 71, 40, 41, 73, 72, 41, 42, 74, 73, 42, 43, 75, 74, 43, 44, 76, 75, 44, 45, 77, 76, 45, 46, 78, 77, 46, 47, 79, 78, 47, 48, 80, 79, 48, 49, 81, 80, 49, 50, 82, 81, 50, 51, 83, 82, 51, 52, 84, 83, 52, 53, 85, 84, 53, 54, 86, 85, 54, 55, 87, 86, 55, 56, 88, 87, 56, 57, 89, 88, 57, 58, 90, 89, 58, 59, 91, 90, 59, 60, 92, 91, 60, 61, 93, 92, 61, 62, 94, 93, 62, 63, 95, 94, 63, 64, 96, 95, 64, 33, 65, 96, 65, 66, 98, 97, 66, 67, 99, 98, 67, 68, 100, 99, 68, 69, 101, 100, 69, 70, 102, 101, 70, 71, 103, 102, 71, 72, 104, 103, 72, 73, 105, 104, 73, 74, 106, 105, 74, 75, 107, 106, 75, 76, 108, 107, 76, 77, 109, 108, 77, 78, 110, 109, 78, 79, 111, 110, 79, 80, 112, 111, 80, 81, 113, 112, 81, 82, 114, 113, 82, 83, 115, 114, 83, 84, 116, 115, 84, 85, 117, 116, 85, 86, 118, 117, 86, 87, 119, 118, 87, 88, 120, 119, 88, 89, 121, 120, 89, 90, 122, 121, 90, 91, 123, 122, 91, 92, 124, 123, 92, 93, 125, 124, 93, 94, 126, 125, 94, 95, 127, 126, 95, 96, 128, 127, 96, 65, 97, 128, 97, 98, 130, 129, 98, 99, 131, 130, 99, 100, 132, 131, 100, 101, 133, 132, 101, 102, 134, 133, 102, 103, 135, 134, 103, 104, 136, 135, 104, 105, 137, 136, 105, 106, 138, 137, 106, 107, 139, 138, 107, 108, 140, 139, 108, 109, 141, 140, 109, 110, 142, 141, 110, 111, 143, 142, 111, 112, 144, 143, 112, 113, 145, 144, 113, 114, 146, 145, 114, 115, 147, 146, 115, 116, 148, 147, 116, 117, 149, 148, 117, 118, 150, 149, 118, 119, 151, 150, 119, 120, 152, 151, 120, 121, 153, 152, 121, 122, 154, 153, 122, 123, 155, 154, 123, 124, 156, 155, 124, 125, 157, 156, 125, 126, 158, 157, 126, 127, 159, 158, 127, 128, 160, 159, 128, 97, 129, 160, 129, 130, 162, 161, 130, 131, 163, 162, 131, 132, 164, 163, 132, 133, 165, 164, 133, 134, 166, 165, 134, 135, 167, 166, 135, 136, 168, 167, 136, 137, 169, 168, 137, 138, 170, 169, 138, 139, 171, 170, 139, 140, 172, 171, 140, 141, 173, 172, 141, 142, 174, 173, 142, 143, 175, 174, 143, 144, 176, 175, 144, 145, 177, 176, 145, 146, 178, 177, 146, 147, 179, 178, 147, 148, 180, 179, 148, 149, 181, 180, 149, 150, 182, 181, 150, 151, 183, 182, 151, 152, 184, 183, 152, 153, 185, 184, 153, 154, 186, 185, 154, 155, 187, 186, 155, 156, 188, 187, 156, 157, 189, 188, 157, 158, 190, 189, 158, 159, 191, 190, 159, 160, 192, 191, 160, 129, 161, 192, 161, 162, 194, 193, 162, 163, 195, 194, 163, 164, 196, 195, 164, 165, 197, 196, 165, 166, 198, 197, 166, 167, 199, 198, 167, 168, 200, 199, 168, 169, 201, 200, 169, 170, 202, 201, 170, 171, 203, 202, 171, 172, 204, 203, 172, 173, 205, 204, 173, 174, 206, 205, 174, 175, 207, 206, 175, 176, 208, 207, 176, 177, 209, 208, 177, 178, 210, 209, 178, 179, 211, 210, 179, 180, 212, 211, 180, 181, 213, 212, 181, 182, 214, 213, 182, 183, 215, 214, 183, 184, 216, 215, 184, 185, 217, 216, 185, 186, 218, 217, 186, 187, 219, 218, 187, 188, 220, 219, 188, 189, 221, 220, 189, 190, 222, 221, 190, 191, 223, 222, 191, 192, 224, 223, 192, 161, 193, 224, 193, 194, 226, 225, 194, 195, 227, 226, 195, 196, 228, 227, 196, 197, 229, 228, 197, 198, 230, 229, 198, 199, 231, 230, 199, 200, 232, 231, 200, 201, 233, 232, 201, 202, 234, 233, 202, 203, 235, 234, 203, 204, 236, 235, 204, 205, 237, 236, 205, 206, 238, 237, 206, 207, 239, 238, 207, 208, 240, 239, 208, 209, 241, 240, 209, 210, 242, 241, 210, 211, 243, 242, 211, 212, 244, 243, 212, 213, 245, 244, 213, 214, 246, 245, 214, 215, 247, 246, 215, 216, 248, 247, 216, 217, 249, 248, 217, 218, 250, 249, 218, 219, 251, 250, 219, 220, 252, 251, 220, 221, 253, 252, 221, 222, 254, 253, 222, 223, 255, 254, 223, 224, 256, 255, 224, 193, 225, 256, 225, 226, 258, 257, 226, 227, 259, 258, 227, 228, 260, 259, 228, 229, 261, 260, 229, 230, 262, 261, 230, 231, 263, 262, 231, 232, 264, 263, 232, 233, 265, 264, 233, 234, 266, 265, 234, 235, 267, 266, 235, 236, 268, 267, 236, 237, 269, 268, 237, 238, 270, 269, 238, 239, 271, 270, 239, 240, 272, 271, 240, 241, 273, 272, 241, 242, 274, 273, 242, 243, 275, 274, 243, 244, 276, 275, 244, 245, 277, 276, 245, 246, 278, 277, 246, 247, 279, 278, 247, 248, 280, 279, 248, 249, 281, 280, 249, 250, 282, 281, 250, 251, 283, 282, 251, 252, 284, 283, 252, 253, 285, 284, 253, 254, 286, 285, 254, 255, 287, 286, 255, 256, 288, 287, 256, 225, 257, 288, 257, 258, 290, 289, 258, 259, 291, 290, 259, 260, 292, 291, 260, 261, 293, 292, 261, 262, 294, 293, 262, 263, 295, 294, 263, 264, 296, 295, 264, 265, 297, 296, 265, 266, 298, 297, 266, 267, 299, 298, 267, 268, 300, 299, 268, 269, 301, 300, 269, 270, 302, 301, 270, 271, 303, 302, 271, 272, 304, 303, 272, 273, 305, 304, 273, 274, 306, 305, 274, 275, 307, 306, 275, 276, 308, 307, 276, 277, 309, 308, 277, 278, 310, 309, 278, 279, 311, 310, 279, 280, 312, 311, 280, 281, 313, 312, 281, 282, 314, 313, 282, 283, 315, 314, 283, 284, 316, 315, 284, 285, 317, 316, 285, 286, 318, 317, 286, 287, 319, 318, 287, 288, 320, 319, 288, 257, 289, 320, 289, 290, 322, 321, 290, 291, 323, 322, 291, 292, 324, 323, 292, 293, 325, 324, 293, 294, 326, 325, 294, 295, 327, 326, 295, 296, 328, 327, 296, 297, 329, 328, 297, 298, 330, 329, 298, 299, 331, 330, 299, 300, 332, 331, 300, 301, 333, 332, 301, 302, 334, 333, 302, 303, 335, 334, 303, 304, 336, 335, 304, 305, 337, 336, 305, 306, 338, 337, 306, 307, 339, 338, 307, 308, 340, 339, 308, 309, 341, 340, 309, 310, 342, 341, 310, 311, 343, 342, 311, 312, 344, 343, 312, 313, 345, 344, 313, 314, 346, 345, 314, 315, 347, 346, 315, 316, 348, 347, 316, 317, 349, 348, 317, 318, 350, 349, 318, 319, 351, 350, 319, 320, 352, 351, 320, 289, 321, 352, 321, 322, 354, 353, 322, 323, 355, 354, 323, 324, 356, 355, 324, 325, 357, 356, 325, 326, 358, 357, 326, 327, 359, 358, 327, 328, 360, 359, 328, 329, 361, 360, 329, 330, 362, 361, 330, 331, 363, 362, 331, 332, 364, 363, 332, 333, 365, 364, 333, 334, 366, 365, 334, 335, 367, 366, 335, 336, 368, 367, 336, 337, 369, 368, 337, 338, 370, 369, 338, 339, 371, 370, 339, 340, 372, 371, 340, 341, 373, 372, 341, 342, 374, 373, 342, 343, 375, 374, 343, 344, 376, 375, 344, 345, 377, 376, 345, 346, 378, 377, 346, 347, 379, 378, 347, 348, 380, 379, 348, 349, 381, 380, 349, 350, 382, 381, 350, 351, 383, 382, 351, 352, 384, 383, 352, 321, 353, 384, 353, 354, 386, 385, 354, 355, 387, 386, 355, 356, 388, 387, 356, 357, 389, 388, 357, 358, 390, 389, 358, 359, 391, 390, 359, 360, 392, 391, 360, 361, 393, 392, 361, 362, 394, 393, 362, 363, 395, 394, 363, 364, 396, 395, 364, 365, 397, 396, 365, 366, 398, 397, 366, 367, 399, 398, 367, 368, 400, 399, 368, 369, 401, 400, 369, 370, 402, 401, 370, 371, 403, 402, 371, 372, 404, 403, 372, 373, 405, 404, 373, 374, 406, 405, 374, 375, 407, 406, 375, 376, 408, 407, 376, 377, 409, 408, 377, 378, 410, 409, 378, 379, 411, 410, 379, 380, 412, 411, 380, 381, 413, 412, 381, 382, 414, 413, 382, 383, 415, 414, 383, 384, 416, 415, 384, 353, 385, 416, 385, 386, 418, 417, 386, 387, 419, 418, 387, 388, 420, 419, 388, 389, 421, 420, 389, 390, 422, 421, 390, 391, 423, 422, 391, 392, 424, 423, 392, 393, 425, 424, 393, 394, 426, 425, 394, 395, 427, 426, 395, 396, 428, 427, 396, 397, 429, 428, 397, 398, 430, 429, 398, 399, 431, 430, 399, 400, 432, 431, 400, 401, 433, 432, 401, 402, 434, 433, 402, 403, 435, 434, 403, 404, 436, 435, 404, 405, 437, 436, 405, 406, 438, 437, 406, 407, 439, 438, 407, 408, 440, 439, 408, 409, 441, 440, 409, 410, 442, 441, 410, 411, 443, 442, 411, 412, 444, 443, 412, 413, 445, 444, 413, 414, 446, 445, 414, 415, 447, 446, 415, 416, 448, 447, 416, 385, 417, 448, 417, 418, 450, 449, 418, 419, 451, 450, 419, 420, 452, 451, 420, 421, 453, 452, 421, 422, 454, 453, 422, 423, 455, 454, 423, 424, 456, 455, 424, 425, 457, 456, 425, 426, 458, 457, 426, 427, 459, 458, 427, 428, 460, 459, 428, 429, 461, 460, 429, 430, 462, 461, 430, 431, 463, 462, 431, 432, 464, 463, 432, 433, 465, 464, 433, 434, 466, 465, 434, 435, 467, 466, 435, 436, 468, 467, 436, 437, 469, 468, 437, 438, 470, 469, 438, 439, 471, 470, 439, 440, 472, 471, 440, 441, 473, 472, 441, 442, 474, 473, 442, 443, 475, 474, 443, 444, 476, 475, 444, 445, 477, 476, 445, 446, 478, 477, 446, 447, 479, 478, 447, 448, 480, 479, 448, 417, 449, 480, 449, 450, 481, 450, 451, 481, 451, 452, 481, 452, 453, 481, 453, 454, 481, 454, 455, 481, 455, 456, 481, 456, 457, 481, 457, 458, 481, 458, 459, 481, 459, 460, 481, 460, 461, 481, 461, 462, 481, 462, 463, 481, 463, 464, 481, 464, 465, 481, 465, 466, 481, 466, 467, 481, 467, 468, 481, 468, 469, 481, 469, 470, 481, 470, 471, 481, 471, 472, 481, 472, 473, 481, 473, 474, 481, 474, 475, 481, 475, 476, 481, 476, 477, 481, 477, 478, 481, 478, 479, 481, 479, 480, 481, 480, 449, 481]
        rel material:binding = </Prop/Materials/LemonPeel>
        point3f[] points = [(0, 0, -2.0861626e-10), (0.007023251, 0, 0.00046115307), (0.0068883016, 0.0009134456, 0.00046115307), (0.006488638, 0.001791788, 0.00046115307), (0.0058396203, 0.0026012731, 0.00046115307), (0.0049661887, 0.0033107926, 0.00046115307), (0.0039019093, 0.0038930802, 0.00046115307), (0.002687682, 0.004325759, 0.00046115307), (0.0013701684, 0.004592201, 0.00046115307), (4.3005011e-19, 0.004682168, 0.00046115307), (-0.0013701684, 0.004592201, 0.00046115307), (-0.002687682, 0.004325759, 0.00046115307), (-0.0039019093, 0.0038930802, 0.00046115307), (-0.0049661887, 0.0033107926, 0.00046115307), (-0.0058396203, 0.0026012731, 0.00046115307), (-0.006488638, 0.001791788, 0.00046115307), (-0.0068883016, 0.0009134456, 0.00046115307), (-0.007023251, 5.7340015e-19, 0.00046115307), (-0.0068883016, -0.0009134456, 0.00046115307), (-0.006488638, -0.001791788, 0.00046115307), (-0.0058396203, -0.0026012731, 0.00046115307), (-0.0049661887, -0.0033107926, 0.00046115307), (-0.0039019093, -0.0038930802, 0.00046115307), (-0.002687682, -0.004325759, 0.00046115307), (-0.0013701684, -0.004592201, 0.00046115307), (-1.2901503e-18, -0.004682168, 0.00046115307), (0.0013701684, -0.004592201, 0.00046115307), (0.002687682, -0.004325759, 0.00046115307), (0.0039019093, -0.0038930802, 0.00046115307), (0.0049661887, -0.0033107926, 0.00046115307), (0.0058396203, -0.0026012731, 0.00046115307), (0.006488638, -0.001791788, 0.00046115307), (0.0068883016, -0.0009134456, 0.00046115307), (0.013776603, 0, 0.001826891), (0.01351189, 0.001791788, 0.001826891), (0.012727922, 0.0035147187, 0.001826891), (0.011454827, 0.0051025804, 0.001826891), (0.00974153, 0.006494353, 0.001826891), (0.0076538706, 0.0076365517, 0.001826891), (0.005272078, 0.008485282, 0.001826891), (0.002687682, 0.009007927, 0.001826891), (8.4357363e-19, 0.009184402, 0.001826891), (-0.002687682, 0.009007927, 0.001826891), (-0.005272078, 0.008485282, 0.001826891), (-0.0076538706, 0.0076365517, 0.001826891), (-0.00974153, 0.006494353, 0.001826891), (-0.011454827, 0.0051025804, 0.001826891), (-0.012727922, 0.0035147187, 0.001826891), (-0.01351189, 0.001791788, 0.001826891), (-0.013776603, 1.1247649e-18, 0.001826891), (-0.01351189, -0.001791788, 0.001826891), (-0.012727922, -0.0035147187, 0.001826891), (-0.011454827, -0.0051025804, 0.001826891), (-0.00974153, -0.006494353, 0.001826891), (-0.0076538706, -0.0076365517, 0.001826891), (-0.005272078, -0.008485282, 0.001826891), (-0.002687682, -0.009007927, 0.001826891), (-2.5307208e-18, -0.009184402, 0.001826891), (0.002687682, -0.009007927, 0.001826891), (0.005272078, -0.008485282, 0.001826891), (0.0076538706, -0.0076365517, 0.001826891), (0.00974153, -0.006494353, 0.001826891), (0.011454827, -0.0051025804, 0.001826891), (0.012727922, -0.0035147187, 0.001826891), (0.01351189, -0.001791788, 0.001826891), (0.020000527, 0, 0.0040447293), (0.019616224, 0.0026012731, 0.0040447293), (0.018478079, 0.0051025804, 0.0040447293), (0.01662983, 0.007407799, 0.0040447293), (0.014142509, 0.00942834, 0.0040447293), (0.011111698, 0.011086554, 0.0040447293), (0.0076538706, 0.012318719, 0.0040447293), (0.0039019093, 0.013077483, 0.0040447293), (1.224679e-18, 0.013333686, 0.0040447293), (-0.0039019093, 0.013077483, 0.0040447293), (-0.0076538706, 0.012318719, 0.0040447293), (-0.011111698, 0.011086554, 0.0040447293), (-0.014142509, 0.00942834, 0.0040447293), (-0.01662983, 0.007407799, 0.0040447293), (-0.018478079, 0.0051025804, 0.0040447293), (-0.019616224, 0.0026012731, 0.0040447293), (-0.020000527, 1.6329055e-18, 0.0040447293), (-0.019616224, -0.0026012731, 0.0040447293), (-0.018478079, -0.0051025804, 0.0040447293), (-0.01662983, -0.007407799, 0.0040447293), (-0.014142509, -0.00942834, 0.0040447293), (-0.011111698, -0.011086554, 0.0040447293), (-0.0076538706, -0.012318719, 0.0040447293), (-0.0039019093, -0.013077483, 0.0040447293), (-3.6740373e-18, -0.013333686, 0.0040447293), (0.0039019093, -0.013077483, 0.0040447293), (0.0076538706, -0.012318719, 0.0040447293), (0.011111698, -0.011086554, 0.0040447293), (0.014142509, -0.00942834, 0.0040447293), (0.01662983, -0.007407799, 0.0040447293), (0.018478079, -0.0051025804, 0.0040447293), (0.019616224, -0.0026012731, 0.0040447293), (0.025455844, 0, 0.007029437), (0.024966717, 0.0033107926, 0.007029437), (0.023518132, 0.006494353, 0.007029437), (0.02116576, 0.00942834, 0.007029437), (0.018, 0.012, 0.007029437), (0.014142509, 0.014110507, 0.007029437), (0.00974153, 0.015678756, 0.007029437), (0.0049661887, 0.016644478, 0.007029437), (1.5587208e-18, 0.016970564, 0.007029437), (-0.0049661887, 0.016644478, 0.007029437), (-0.00974153, 0.015678756, 0.007029437), (-0.014142509, 0.014110507, 0.007029437), (-0.018, 0.012, 0.007029437), (-0.02116576, 0.00942834, 0.007029437), (-0.023518132, 0.006494353, 0.007029437), (-0.024966717, 0.0033107926, 0.007029437), (-0.025455844, 2.0782946e-18, 0.007029437), (-0.024966717, -0.0033107926, 0.007029437), (-0.023518132, -0.006494353, 0.007029437), (-0.02116576, -0.00942834, 0.007029437), (-0.018, -0.012, 0.007029437), (-0.014142509, -0.014110507, 0.007029437), (-0.00974153, -0.015678756, 0.007029437), (-0.0049661887, -0.016644478, 0.007029437), (-4.6761624e-18, -0.016970564, 0.007029437), (0.0049661887, -0.016644478, 0.007029437), (0.00974153, -0.015678756, 0.007029437), (0.014142509, -0.014110507, 0.007029437), (0.018, -0.012, 0.007029437), (0.02116576, -0.00942834, 0.007029437), (0.023518132, -0.006494353, 0.007029437), (0.024966717, -0.0033107926, 0.007029437), (0.029932905, 0, 0.0106663145), (0.029357752, 0.0038930802, 0.0106663145), (0.027654398, 0.0076365517, 0.0106663145), (0.024888301, 0.011086554, 0.0106663145), (0.02116576, 0.014110507, 0.0106663145), (0.01662983, 0.0165922, 0.0106663145), (0.011454827, 0.018436266, 0.0106663145), (0.0058396203, 0.019571835, 0.0106663145), (1.8328618e-18, 0.01995527, 0.0106663145), (-0.0058396203, 0.019571835, 0.0106663145), (-0.011454827, 0.018436266, 0.0106663145), (-0.01662983, 0.0165922, 0.0106663145), (-0.02116576, 0.014110507, 0.0106663145), (-0.024888301, 0.011086554, 0.0106663145), (-0.027654398, 0.0076365517, 0.0106663145), (-0.029357752, 0.0038930802, 0.0106663145), (-0.029932905, 2.4438158e-18, 0.0106663145), (-0.029357752, -0.0038930802, 0.0106663145), (-0.027654398, -0.0076365517, 0.0106663145), (-0.024888301, -0.011086554, 0.0106663145), (-0.02116576, -0.014110507, 0.0106663145), (-0.01662983, -0.0165922, 0.0106663145), (-0.011454827, -0.018436266, 0.0106663145), (-0.0058396203, -0.019571835, 0.0106663145), (-5.4985855e-18, -0.01995527, 0.0106663145), (0.0058396203, -0.019571835, 0.0106663145), (0.011454827, -0.018436266, 0.0106663145), (0.01662983, -0.0165922, 0.0106663145), (0.02116576, -0.014110507, 0.0106663145), (0.024888301, -0.011086554, 0.0106663145), (0.027654398, -0.0076365517, 0.0106663145), (0.029357752, -0.0038930802, 0.0106663145), (0.03325966, 0, 0.014815598), (0.032620586, 0.004325759, 0.014815598), (0.030727921, 0.008485282, 0.014815598), (0.027654398, 0.012318719, 0.014815598), (0.023518132, 0.015678756, 0.014815598), (0.018478079, 0.018436266, 0.014815598), (0.012727922, 0.020485282, 0.014815598), (0.006488638, 0.021747058, 0.014815598), (2.0365669e-18, 0.022173109, 0.014815598), (-0.006488638, 0.021747058, 0.014815598), (-0.012727922, 0.020485282, 0.014815598), (-0.018478079, 0.018436266, 0.014815598), (-0.023518132, 0.015678756, 0.014815598), (-0.027654398, 0.012318719, 0.014815598), (-0.030727921, 0.008485282, 0.014815598), (-0.032620586, 0.004325759, 0.014815598), (-0.03325966, 2.7154226e-18, 0.014815598), (-0.032620586, -0.004325759, 0.014815598), (-0.030727921, -0.008485282, 0.014815598), (-0.027654398, -0.012318719, 0.014815598), (-0.023518132, -0.015678756, 0.014815598), (-0.018478079, -0.018436266, 0.014815598), (-0.012727922, -0.020485282, 0.014815598), (-0.006488638, -0.021747058, 0.014815598), (-6.1097008e-18, -0.022173109, 0.014815598), (0.006488638, -0.021747058, 0.014815598), (0.012727922, -0.020485282, 0.014815598), (0.018478079, -0.018436266, 0.014815598), (0.023518132, -0.015678756, 0.014815598), (0.027654398, -0.012318719, 0.014815598), (0.030727921, -0.008485282, 0.014815598), (0.032620586, -0.004325759, 0.014815598), (0.035308268, 0, 0.019317832), (0.03462983, 0.004592201, 0.019317832), (0.032620586, 0.009007927, 0.019317832), (0.029357752, 0.013077483, 0.019317832), (0.024966717, 0.016644478, 0.019317832), (0.019616224, 0.019571835, 0.019317832), (0.01351189, 0.021747058, 0.019317832), (0.0068883016, 0.023086555, 0.019317832), (2.162008e-18, 0.023538847, 0.019317832), (-0.0068883016, 0.023086555, 0.019317832), (-0.01351189, 0.021747058, 0.019317832), (-0.019616224, 0.019571835, 0.019317832), (-0.024966717, 0.016644478, 0.019317832), (-0.029357752, 0.013077483, 0.019317832), (-0.032620586, 0.009007927, 0.019317832), (-0.03462983, 0.004592201, 0.019317832), (-0.035308268, 2.8826773e-18, 0.019317832), (-0.03462983, -0.004592201, 0.019317832), (-0.032620586, -0.009007927, 0.019317832), (-0.029357752, -0.013077483, 0.019317832), (-0.024966717, -0.016644478, 0.019317832), (-0.019616224, -0.019571835, 0.019317832), (-0.01351189, -0.021747058, 0.019317832), (-0.0068883016, -0.023086555, 0.019317832), (-6.4860237e-18, -0.023538847, 0.019317832), (0.0068883016, -0.023086555, 0.019317832), (0.01351189, -0.021747058, 0.019317832), (0.019616224, -0.019571835, 0.019317832), (0.024966717, -0.016644478, 0.019317832), (0.029357752, -0.013077483, 0.019317832), (0.032620586, -0.009007927, 0.019317832), (0.03462983, -0.004592201, 0.019317832), (0.036, 0, 0.024), (0.035308268, 0.004682168, 0.024), (0.03325966, 0.009184402, 0.024), (0.029932905, 0.013333686, 0.024), (0.025455844, 0.016970564, 0.024), (0.020000527, 0.01995527, 0.024), (0.013776603, 0.022173109, 0.024), (0.007023251, 0.023538847, 0.024), (2.2043642e-18, 0.024, 0.024), (-0.007023251, 0.023538847, 0.024), (-0.013776603, 0.022173109, 0.024), (-0.020000527, 0.01995527, 0.024), (-0.025455844, 0.016970564, 0.024), (-0.029932905, 0.013333686, 0.024), (-0.03325966, 0.009184402, 0.024), (-0.035308268, 0.004682168, 0.024), (-0.036, 2.9391524e-18, 0.024), (-0.035308268, -0.004682168, 0.024), (-0.03325966, -0.009184402, 0.024), (-0.029932905, -0.013333686, 0.024), (-0.025455844, -0.016970564, 0.024), (-0.020000527, -0.01995527, 0.024), (-0.013776603, -0.022173109, 0.024), (-0.007023251, -0.023538847, 0.024), (-6.6130923e-18, -0.024, 0.024), (0.007023251, -0.023538847, 0.024), (0.013776603, -0.022173109, 0.024), (0.020000527, -0.01995527, 0.024), (0.025455844, -0.016970564, 0.024), (0.029932905, -0.013333686, 0.024), (0.03325966, -0.009184402, 0.024), (0.035308268, -0.004682168, 0.024), (0.035308268, 0, 0.028682169), (0.03462983, 0.004592201, 0.028682169), (0.032620586, 0.009007927, 0.028682169), (0.029357752, 0.013077483, 0.028682169), (0.024966717, 0.016644478, 0.028682169), (0.019616224, 0.019571835, 0.028682169), (0.01351189, 0.021747058, 0.028682169), (0.0068883016, 0.023086555, 0.028682169), (2.162008e-18, 0.023538847, 0.028682169), (-0.0068883016, 0.023086555, 0.028682169), (-0.01351189, 0.021747058, 0.028682169), (-0.019616224, 0.019571835, 0.028682169), (-0.024966717, 0.016644478, 0.028682169), (-0.029357752, 0.013077483, 0.028682169), (-0.032620586, 0.009007927, 0.028682169), (-0.03462983, 0.004592201, 0.028682169), (-0.035308268, 2.8826773e-18, 0.028682169), (-0.03462983, -0.004592201, 0.028682169), (-0.032620586, -0.009007927, 0.028682169), (-0.029357752, -0.013077483, 0.028682169), (-0.024966717, -0.016644478, 0.028682169), (-0.019616224, -0.019571835, 0.028682169), (-0.01351189, -0.021747058, 0.028682169), (-0.0068883016, -0.023086555, 0.028682169), (-6.4860237e-18, -0.023538847, 0.028682169), (0.0068883016, -0.023086555, 0.028682169), (0.01351189, -0.021747058, 0.028682169), (0.019616224, -0.019571835, 0.028682169), (0.024966717, -0.016644478, 0.028682169), (0.029357752, -0.013077483, 0.028682169), (0.032620586, -0.009007927, 0.028682169), (0.03462983, -0.004592201, 0.028682169), (0.03325966, 0, 0.0331844), (0.032620586, 0.004325759, 0.0331844), (0.030727921, 0.008485282, 0.0331844), (0.027654398, 0.012318719, 0.0331844), (0.023518132, 0.015678756, 0.0331844), (0.018478079, 0.018436266, 0.0331844), (0.012727922, 0.020485282, 0.0331844), (0.006488638, 0.021747058, 0.0331844), (2.0365669e-18, 0.022173109, 0.0331844), (-0.006488638, 0.021747058, 0.0331844), (-0.012727922, 0.020485282, 0.0331844), (-0.018478079, 0.018436266, 0.0331844), (-0.023518132, 0.015678756, 0.0331844), (-0.027654398, 0.012318719, 0.0331844), (-0.030727921, 0.008485282, 0.0331844), (-0.032620586, 0.004325759, 0.0331844), (-0.03325966, 2.7154226e-18, 0.0331844), (-0.032620586, -0.004325759, 0.0331844), (-0.030727921, -0.008485282, 0.0331844), (-0.027654398, -0.012318719, 0.0331844), (-0.023518132, -0.015678756, 0.0331844), (-0.018478079, -0.018436266, 0.0331844), (-0.012727922, -0.020485282, 0.0331844), (-0.006488638, -0.021747058, 0.0331844), (-6.1097008e-18, -0.022173109, 0.0331844), (0.006488638, -0.021747058, 0.0331844), (0.012727922, -0.020485282, 0.0331844), (0.018478079, -0.018436266, 0.0331844), (0.023518132, -0.015678756, 0.0331844), (0.027654398, -0.012318719, 0.0331844), (0.030727921, -0.008485282, 0.0331844), (0.032620586, -0.004325759, 0.0331844), (0.029932905, 0, 0.037333686), (0.029357752, 0.0038930802, 0.037333686), (0.027654398, 0.0076365517, 0.037333686), (0.024888301, 0.011086554, 0.037333686), (0.02116576, 0.014110507, 0.037333686), (0.01662983, 0.0165922, 0.037333686), (0.011454827, 0.018436266, 0.037333686), (0.0058396203, 0.019571835, 0.037333686), (1.8328618e-18, 0.01995527, 0.037333686), (-0.0058396203, 0.019571835, 0.037333686), (-0.011454827, 0.018436266, 0.037333686), (-0.01662983, 0.0165922, 0.037333686), (-0.02116576, 0.014110507, 0.037333686), (-0.024888301, 0.011086554, 0.037333686), (-0.027654398, 0.0076365517, 0.037333686), (-0.029357752, 0.0038930802, 0.037333686), (-0.029932905, 2.4438158e-18, 0.037333686), (-0.029357752, -0.0038930802, 0.037333686), (-0.027654398, -0.0076365517, 0.037333686), (-0.024888301, -0.011086554, 0.037333686), (-0.02116576, -0.014110507, 0.037333686), (-0.01662983, -0.0165922, 0.037333686), (-0.011454827, -0.018436266, 0.037333686), (-0.0058396203, -0.019571835, 0.037333686), (-5.4985855e-18, -0.01995527, 0.037333686), (0.0058396203, -0.019571835, 0.037333686), (0.011454827, -0.018436266, 0.037333686), (0.01662983, -0.0165922, 0.037333686), (0.02116576, -0.014110507, 0.037333686), (0.024888301, -0.011086554, 0.037333686), (0.027654398, -0.0076365517, 0.037333686), (0.029357752, -0.0038930802, 0.037333686), (0.025455844, 0, 0.040970564), (0.024966717, 0.0033107926, 0.040970564), (0.023518132, 0.006494353, 0.040970564), (0.02116576, 0.00942834, 0.040970564), (0.018, 0.012, 0.040970564), (0.014142509, 0.014110507, 0.040970564), (0.00974153, 0.015678756, 0.040970564), (0.0049661887, 0.016644478, 0.040970564), (1.5587208e-18, 0.016970564, 0.040970564), (-0.0049661887, 0.016644478, 0.040970564), (-0.00974153, 0.015678756, 0.040970564), (-0.014142509, 0.014110507, 0.040970564), (-0.018, 0.012, 0.040970564), (-0.02116576, 0.00942834, 0.040970564), (-0.023518132, 0.006494353, 0.040970564), (-0.024966717, 0.0033107926, 0.040970564), (-0.025455844, 2.0782946e-18, 0.040970564), (-0.024966717, -0.0033107926, 0.040970564), (-0.023518132, -0.006494353, 0.040970564), (-0.02116576, -0.00942834, 0.040970564), (-0.018, -0.012, 0.040970564), (-0.014142509, -0.014110507, 0.040970564), (-0.00974153, -0.015678756, 0.040970564), (-0.0049661887, -0.016644478, 0.040970564), (-4.6761624e-18, -0.016970564, 0.040970564), (0.0049661887, -0.016644478, 0.040970564), (0.00974153, -0.015678756, 0.040970564), (0.014142509, -0.014110507, 0.040970564), (0.018, -0.012, 0.040970564), (0.02116576, -0.00942834, 0.040970564), (0.023518132, -0.006494353, 0.040970564), (0.024966717, -0.0033107926, 0.040970564), (0.020000527, 0, 0.04395527), (0.019616224, 0.0026012731, 0.04395527), (0.018478079, 0.0051025804, 0.04395527), (0.01662983, 0.007407799, 0.04395527), (0.014142509, 0.00942834, 0.04395527), (0.011111698, 0.011086554, 0.04395527), (0.0076538706, 0.012318719, 0.04395527), (0.0039019093, 0.013077483, 0.04395527), (1.224679e-18, 0.013333686, 0.04395527), (-0.0039019093, 0.013077483, 0.04395527), (-0.0076538706, 0.012318719, 0.04395527), (-0.011111698, 0.011086554, 0.04395527), (-0.014142509, 0.00942834, 0.04395527), (-0.01662983, 0.007407799, 0.04395527), (-0.018478079, 0.0051025804, 0.04395527), (-0.019616224, 0.0026012731, 0.04395527), (-0.020000527, 1.6329055e-18, 0.04395527), (-0.019616224, -0.0026012731, 0.04395527), (-0.018478079, -0.0051025804, 0.04395527), (-0.01662983, -0.007407799, 0.04395527), (-0.014142509, -0.00942834, 0.04395527), (-0.011111698, -0.011086554, 0.04395527), (-0.0076538706, -0.012318719, 0.04395527), (-0.0039019093, -0.013077483, 0.04395527), (-3.6740373e-18, -0.013333686, 0.04395527), (0.0039019093, -0.013077483, 0.04395527), (0.0076538706, -0.012318719, 0.04395527), (0.011111698, -0.011086554, 0.04395527), (0.014142509, -0.00942834, 0.04395527), (0.01662983, -0.007407799, 0.04395527), (0.018478079, -0.0051025804, 0.04395527), (0.019616224, -0.0026012731, 0.04395527), (0.013776603, 0, 0.04617311), (0.01351189, 0.001791788, 0.04617311), (0.012727922, 0.0035147187, 0.04617311), (0.011454827, 0.0051025804, 0.04617311), (0.00974153, 0.006494353, 0.04617311), (0.0076538706, 0.0076365517, 0.04617311), (0.005272078, 0.008485282, 0.04617311), (0.002687682, 0.009007927, 0.04617311), (8.4357363e-19, 0.009184402, 0.04617311), (-0.002687682, 0.009007927, 0.04617311), (-0.005272078, 0.008485282, 0.04617311), (-0.0076538706, 0.0076365517, 0.04617311), (-0.00974153, 0.006494353, 0.04617311), (-0.011454827, 0.0051025804, 0.04617311), (-0.012727922, 0.0035147187, 0.04617311), (-0.01351189, 0.001791788, 0.04617311), (-0.013776603, 1.1247649e-18, 0.04617311), (-0.01351189, -0.001791788, 0.04617311), (-0.012727922, -0.0035147187, 0.04617311), (-0.011454827, -0.0051025804, 0.04617311), (-0.00974153, -0.006494353, 0.04617311), (-0.0076538706, -0.0076365517, 0.04617311), (-0.005272078, -0.008485282, 0.04617311), (-0.002687682, -0.009007927, 0.04617311), (-2.5307208e-18, -0.009184402, 0.04617311), (0.002687682, -0.009007927, 0.04617311), (0.005272078, -0.008485282, 0.04617311), (0.0076538706, -0.0076365517, 0.04617311), (0.00974153, -0.006494353, 0.04617311), (0.011454827, -0.0051025804, 0.04617311), (0.012727922, -0.0035147187, 0.04617311), (0.01351189, -0.001791788, 0.04617311), (0.007023251, 0, 0.047538847), (0.0068883016, 0.0009134456, 0.047538847), (0.006488638, 0.001791788, 0.047538847), (0.0058396203, 0.0026012731, 0.047538847), (0.0049661887, 0.0033107926, 0.047538847), (0.0039019093, 0.0038930802, 0.047538847), (0.002687682, 0.004325759, 0.047538847), (0.0013701684, 0.004592201, 0.047538847), (4.3005011e-19, 0.004682168, 0.047538847), (-0.0013701684, 0.004592201, 0.047538847), (-0.002687682, 0.004325759, 0.047538847), (-0.0039019093, 0.0038930802, 0.047538847), (-0.0049661887, 0.0033107926, 0.047538847), (-0.0058396203, 0.0026012731, 0.047538847), (-0.006488638, 0.001791788, 0.047538847), (-0.0068883016, 0.0009134456, 0.047538847), (-0.007023251, 5.7340015e-19, 0.047538847), (-0.0068883016, -0.0009134456, 0.047538847), (-0.006488638, -0.001791788, 0.047538847), (-0.0058396203, -0.0026012731, 0.047538847), (-0.0049661887, -0.0033107926, 0.047538847), (-0.0039019093, -0.0038930802, 0.047538847), (-0.002687682, -0.004325759, 0.047538847), (-0.0013701684, -0.004592201, 0.047538847), (-1.2901503e-18, -0.004682168, 0.047538847), (0.0013701684, -0.004592201, 0.047538847), (0.002687682, -0.004325759, 0.047538847), (0.0039019093, -0.0038930802, 0.047538847), (0.0049661887, -0.0033107926, 0.047538847), (0.0058396203, -0.0026012731, 0.047538847), (0.006488638, -0.001791788, 0.047538847), (0.0068883016, -0.0009134456, 0.047538847), (0, 0, 0.048)]
        uniform token subdivisionScheme = "none"
    }

    def Mesh "TipLeft" (
        prepend apiSchemas = ["MaterialBindingAPI"]
    )
    {
        float3[] extent = [(-0.038, -0.009, 0.015000001), (-0.026, 0.009, 0.033)]
        int[] faceVertexCounts = [3, 3, 3, 3, 3, 3, 3, 3, 3, 3, 3, 3, 3, 3, 3, 3, 3, 3, 3, 3, 3, 3, 3, 3, 3, 3, 3, 3, 3, 3, 3, 3, 4, 4, 4, 4, 4, 4, 4, 4, 4, 4, 4, 4, 4, 4, 4, 4, 4, 4, 4, 4, 4, 4, 4, 4, 4, 4, 4, 4, 4, 4, 4, 4, 4, 4, 4, 4, 4, 4, 4, 4, 4, 4, 4, 4, 4, 4, 4, 4, 4, 4, 4, 4, 4, 4, 4, 4, 4, 4, 4, 4, 4, 4, 4, 4, 4, 4, 4, 4, 4, 4, 4, 4, 4, 4, 4, 4, 4, 4, 4, 4, 4, 4, 4, 4, 4, 4, 4, 4, 4, 4, 4, 4, 4, 4, 4, 4, 4, 4, 4, 4, 4, 4, 4, 4, 4, 4, 4, 4, 4, 4, 4, 4, 4, 4, 4, 4, 4, 4, 4, 4, 4, 4, 4, 4, 4, 4, 4, 4, 4, 4, 4, 4, 4, 4, 4, 4, 4, 4, 4, 4, 4, 4, 4, 4, 4, 4, 4, 4, 4, 4, 4, 4, 4, 4, 4, 4, 4, 4, 4, 4, 4, 4, 4, 4, 4, 4, 4, 4, 4, 4, 4, 4, 4, 4, 4, 4, 4, 4, 4, 4, 4, 4, 4, 4, 4, 4, 4, 4, 4, 4, 4, 4, 4, 4, 4, 4, 4, 4, 4, 4, 4, 4, 4, 4, 4, 4, 4, 4, 4, 4, 4, 4, 4, 4, 4, 4, 4, 4, 4, 4, 4, 4, 4, 4, 4, 4, 4, 4, 4, 4, 4, 4, 4, 4, 4, 4, 4, 4, 4, 4, 4, 4, 4, 4, 4, 4, 4, 4, 4, 4, 4, 4, 4, 4, 4, 4, 4, 4, 4, 4, 4, 4, 4, 4, 4, 4, 4, 4, 4, 4, 4, 4, 4, 4, 4, 4, 4, 4, 4, 4, 4, 4, 4, 4, 4, 4, 4, 4, 4, 4, 4, 4, 4, 4, 4, 4, 4, 4, 4, 4, 4, 4, 4, 4, 4, 4, 4, 4, 4, 4, 4, 4, 4, 4, 4, 4, 4, 4, 4, 4, 4, 4, 4, 4, 4, 4, 4, 4, 4, 4, 4, 4, 4, 4, 4, 4, 4, 4, 4, 4, 4, 4, 4, 4, 4, 4, 4, 4, 4, 4, 4, 4, 4, 4, 4, 4, 4, 4, 4, 4, 4, 4, 4, 4, 4, 4, 4, 4, 4, 4, 4, 4, 4, 4, 4, 4, 4, 4, 4, 4, 4, 4, 4, 4, 4, 4, 4, 4, 4, 4, 4, 4, 4, 4, 4, 4, 4, 4, 4, 4, 4, 4, 4, 4, 4, 4, 4, 4, 4, 4, 4, 4, 4, 4, 4, 4, 4, 4, 4, 4, 4, 4, 4, 4, 4, 4, 4, 4, 4, 4, 4, 4, 4, 4, 4, 4, 4, 4, 4, 4, 4, 4, 4, 4, 4, 4, 4, 4, 3, 3, 3, 3, 3, 3, 3, 3, 3, 3, 3, 3, 3, 3, 3, 3, 3, 3, 3, 3, 3, 3, 3, 3, 3, 3, 3, 3, 3, 3, 3, 3]
        int[] faceVertexIndices = [0, 2, 1, 0, 3, 2, 0, 4, 3, 0, 5, 4, 0, 6, 5, 0, 7, 6, 0, 8, 7, 0, 9, 8, 0, 10, 9, 0, 11, 10, 0, 12, 11, 0, 13, 12, 0, 14, 13, 0, 15, 14, 0, 16, 15, 0, 17, 16, 0, 18, 17, 0, 19, 18, 0, 20, 19, 0, 21, 20, 0, 22, 21, 0, 23, 22, 0, 24, 23, 0, 25, 24, 0, 26, 25, 0, 27, 26, 0, 28, 27, 0, 29, 28, 0, 30, 29, 0, 31, 30, 0, 32, 31, 0, 1, 32, 1, 2, 34, 33, 2, 3, 35, 34, 3, 4, 36, 35, 4, 5, 37, 36, 5, 6, 38, 37, 6, 7, 39, 38, 7, 8, 40, 39, 8, 9, 41, 40, 9, 10, 42, 41, 10, 11, 43, 42, 11, 12, 44, 43, 12, 13, 45, 44, 13, 14, 46, 45, 14, 15, 47, 46, 15, 16, 48, 47, 16, 17, 49, 48, 17, 18, 50, 49, 18, 19, 51, 50, 19, 20, 52, 51, 20, 21, 53, 52, 21, 22, 54, 53, 22, 23, 55, 54, 23, 24, 56, 55, 24, 25, 57, 56, 25, 26, 58, 57, 26, 27, 59, 58, 27, 28, 60, 59, 28, 29, 61, 60, 29, 30, 62, 61, 30, 31, 63, 62, 31, 32, 64, 63, 32, 1, 33, 64, 33, 34, 66, 65, 34, 35, 67, 66, 35, 36, 68, 67, 36, 37, 69, 68, 37, 38, 70, 69, 38, 39, 71, 70, 39, 40, 72, 71, 40, 41, 73, 72, 41, 42, 74, 73, 42, 43, 75, 74, 43, 44, 76, 75, 44, 45, 77, 76, 45, 46, 78, 77, 46, 47, 79, 78, 47, 48, 80, 79, 48, 49, 81, 80, 49, 50, 82, 81, 50, 51, 83, 82, 51, 52, 84, 83, 52, 53, 85, 84, 53, 54, 86, 85, 54, 55, 87, 86, 55, 56, 88, 87, 56, 57, 89, 88, 57, 58, 90, 89, 58, 59, 91, 90, 59, 60, 92, 91, 60, 61, 93, 92, 61, 62, 94, 93, 62, 63, 95, 94, 63, 64, 96, 95, 64, 33, 65, 96, 65, 66, 98, 97, 66, 67, 99, 98, 67, 68, 100, 99, 68, 69, 101, 100, 69, 70, 102, 101, 70, 71, 103, 102, 71, 72, 104, 103, 72, 73, 105, 104, 73, 74, 106, 105, 74, 75, 107, 106, 75, 76, 108, 107, 76, 77, 109, 108, 77, 78, 110, 109, 78, 79, 111, 110, 79, 80, 112, 111, 80, 81, 113, 112, 81, 82, 114, 113, 82, 83, 115, 114, 83, 84, 116, 115, 84, 85, 117, 116, 85, 86, 118, 117, 86, 87, 119, 118, 87, 88, 120, 119, 88, 89, 121, 120, 89, 90, 122, 121, 90, 91, 123, 122, 91, 92, 124, 123, 92, 93, 125, 124, 93, 94, 126, 125, 94, 95, 127, 126, 95, 96, 128, 127, 96, 65, 97, 128, 97, 98, 130, 129, 98, 99, 131, 130, 99, 100, 132, 131, 100, 101, 133, 132, 101, 102, 134, 133, 102, 103, 135, 134, 103, 104, 136, 135, 104, 105, 137, 136, 105, 106, 138, 137, 106, 107, 139, 138, 107, 108, 140, 139, 108, 109, 141, 140, 109, 110, 142, 141, 110, 111, 143, 142, 111, 112, 144, 143, 112, 113, 145, 144, 113, 114, 146, 145, 114, 115, 147, 146, 115, 116, 148, 147, 116, 117, 149, 148, 117, 118, 150, 149, 118, 119, 151, 150, 119, 120, 152, 151, 120, 121, 153, 152, 121, 122, 154, 153, 122, 123, 155, 154, 123, 124, 156, 155, 124, 125, 157, 156, 125, 126, 158, 157, 126, 127, 159, 158, 127, 128, 160, 159, 128, 97, 129, 160, 129, 130, 162, 161, 130, 131, 163, 162, 131, 132, 164, 163, 132, 133, 165, 164, 133, 134, 166, 165, 134, 135, 167, 166, 135, 136, 168, 167, 136, 137, 169, 168, 137, 138, 170, 169, 138, 139, 171, 170, 139, 140, 172, 171, 140, 141, 173, 172, 141, 142, 174, 173, 142, 143, 175, 174, 143, 144, 176, 175, 144, 145, 177, 176, 145, 146, 178, 177, 146, 147, 179, 178, 147, 148, 180, 179, 148, 149, 181, 180, 149, 150, 182, 181, 150, 151, 183, 182, 151, 152, 184, 183, 152, 153, 185, 184, 153, 154, 186, 185, 154, 155, 187, 186, 155, 156, 188, 187, 156, 157, 189, 188, 157, 158, 190, 189, 158, 159, 191, 190, 159, 160, 192, 191, 160, 129, 161, 192, 161, 162, 194, 193, 162, 163, 195, 194, 163, 164, 196, 195, 164, 165, 197, 196, 165, 166, 198, 197, 166, 167, 199, 198, 167, 168, 200, 199, 168, 169, 201, 200, 169, 170, 202, 201, 170, 171, 203, 202, 171, 172, 204, 203, 172, 173, 205, 204, 173, 174, 206, 205, 174, 175, 207, 206, 175, 176, 208, 207, 176, 177, 209, 208, 177, 178, 210, 209, 178, 179, 211, 210, 179, 180, 212, 211, 180, 181, 213, 212, 181, 182, 214, 213, 182, 183, 215, 214, 183, 184, 216, 215, 184, 185, 217, 216, 185, 186, 218, 217, 186, 187, 219, 218, 187, 188, 220, 219, 188, 189, 221, 220, 189, 190, 222, 221, 190, 191, 223, 222, 191, 192, 224, 223, 192, 161, 193, 224, 193, 194, 226, 225, 194, 195, 227, 226, 195, 196, 228, 227, 196, 197, 229, 228, 197, 198, 230, 229, 198, 199, 231, 230, 199, 200, 232, 231, 200, 201, 233, 232, 201, 202, 234, 233, 202, 203, 235, 234, 203, 204, 236, 235, 204, 205, 237, 236, 205, 206, 238, 237, 206, 207, 239, 238, 207, 208, 240, 239, 208, 209, 241, 240, 209, 210, 242, 241, 210, 211, 243, 242, 211, 212, 244, 243, 212, 213, 245, 244, 213, 214, 246, 245, 214, 215, 247, 246, 215, 216, 248, 247, 216, 217, 249, 248, 217, 218, 250, 249, 218, 219, 251, 250, 219, 220, 252, 251, 220, 221, 253, 252, 221, 222, 254, 253, 222, 223, 255, 254, 223, 224, 256, 255, 224, 193, 225, 256, 225, 226, 258, 257, 226, 227, 259, 258, 227, 228, 260, 259, 228, 229, 261, 260, 229, 230, 262, 261, 230, 231, 263, 262, 231, 232, 264, 263, 232, 233, 265, 264, 233, 234, 266, 265, 234, 235, 267, 266, 235, 236, 268, 267, 236, 237, 269, 268, 237, 238, 270, 269, 238, 239, 271, 270, 239, 240, 272, 271, 240, 241, 273, 272, 241, 242, 274, 273, 242, 243, 275, 274, 243, 244, 276, 275, 244, 245, 277, 276, 245, 246, 278, 277, 246, 247, 279, 278, 247, 248, 280, 279, 248, 249, 281, 280, 249, 250, 282, 281, 250, 251, 283, 282, 251, 252, 284, 283, 252, 253, 285, 284, 253, 254, 286, 285, 254, 255, 287, 286, 255, 256, 288, 287, 256, 225, 257, 288, 257, 258, 290, 289, 258, 259, 291, 290, 259, 260, 292, 291, 260, 261, 293, 292, 261, 262, 294, 293, 262, 263, 295, 294, 263, 264, 296, 295, 264, 265, 297, 296, 265, 266, 298, 297, 266, 267, 299, 298, 267, 268, 300, 299, 268, 269, 301, 300, 269, 270, 302, 301, 270, 271, 303, 302, 271, 272, 304, 303, 272, 273, 305, 304, 273, 274, 306, 305, 274, 275, 307, 306, 275, 276, 308, 307, 276, 277, 309, 308, 277, 278, 310, 309, 278, 279, 311, 310, 279, 280, 312, 311, 280, 281, 313, 312, 281, 282, 314, 313, 282, 283, 315, 314, 283, 284, 316, 315, 284, 285, 317, 316, 285, 286, 318, 317, 286, 287, 319, 318, 287, 288, 320, 319, 288, 257, 289, 320, 289, 290, 322, 321, 290, 291, 323, 322, 291, 292, 324, 323, 292, 293, 325, 324, 293, 294, 326, 325, 294, 295, 327, 326, 295, 296, 328, 327, 296, 297, 329, 328, 297, 298, 330, 329, 298, 299, 331, 330, 299, 300, 332, 331, 300, 301, 333, 332, 301, 302, 334, 333, 302, 303, 335, 334, 303, 304, 336, 335, 304, 305, 337, 336, 305, 306, 338, 337, 306, 307, 339, 338, 307, 308, 340, 339, 308, 309, 341, 340, 309, 310, 342, 341, 310, 311, 343, 342, 311, 312, 344, 343, 312, 313, 345, 344, 313, 314, 346, 345, 314, 315, 347, 346, 315, 316, 348, 347, 316, 317, 349, 348, 317, 318, 350, 349, 318, 319, 351, 350, 319, 320, 352, 351, 320, 289, 321, 352, 321, 322, 354, 353, 322, 323, 355, 354, 323, 324, 356, 355, 324, 325, 357, 356, 325, 326, 358, 357, 326, 327, 359, 358, 327, 328, 360, 359, 328, 329, 361, 360, 329, 330, 362, 361, 330, 331, 363, 362, 331, 332, 364, 363, 332, 333, 365, 364, 333, 334, 366, 365, 334, 335, 367, 366, 335, 336, 368, 367, 336, 337, 369, 368, 337, 338, 370, 369, 338, 339, 371, 370, 339, 340, 372, 371, 340, 341, 373, 372, 341, 342, 374, 373, 342, 343, 375, 374, 343, 344, 376, 375, 344, 345, 377, 376, 345, 346, 378, 377, 346, 347, 379, 378, 347, 348, 380, 379, 348, 349, 381, 380, 349, 350, 382, 381, 350, 351, 383, 382, 351, 352, 384, 383, 352, 321, 353, 384, 353, 354, 386, 385, 354, 355, 387, 386, 355, 356, 388, 387, 356, 357, 389, 388, 357, 358, 390, 389, 358, 359, 391, 390, 359, 360, 392, 391, 360, 361, 393, 392, 361, 362, 394, 393, 362, 363, 395, 394, 363, 364, 396, 395, 364, 365, 397, 396, 365, 366, 398, 397, 366, 367, 399, 398, 367, 368, 400, 399, 368, 369, 401, 400, 369, 370, 402, 401, 370, 371, 403, 402, 371, 372, 404, 403, 372, 373, 405, 404, 373, 374, 406, 405, 374, 375, 407, 406, 375, 376, 408, 407, 376, 377, 409, 408, 377, 378, 410, 409, 378, 379, 411, 410, 379, 380, 412, 411, 380, 381, 413, 412, 381, 382, 414, 413, 382, 383, 415, 414, 383, 384, 416, 415, 384, 353, 385, 416, 385, 386, 418, 417, 386, 387, 419, 418, 387, 388, 420, 419, 388, 389, 421, 420, 389, 390, 422, 421, 390, 391, 423, 422, 391, 392, 424, 423, 392, 393, 425, 424, 393, 394, 426, 425, 394, 395, 427, 426, 395, 396, 428, 427, 396, 397, 429, 428, 397, 398, 430, 429, 398, 399, 431, 430, 399, 400, 432, 431, 400, 401, 433, 432, 401, 402, 434, 433, 402, 403, 435, 434, 403, 404, 436, 435, 404, 405, 437, 436, 405, 406, 438, 437, 406, 407, 439, 438, 407, 408, 440, 439, 408, 409, 441, 440, 409, 410, 442, 441, 410, 411, 443, 442, 411, 412, 444, 443, 412, 413, 445, 444, 413, 414, 446, 445, 414, 415, 447, 446, 415, 416, 448, 447, 416, 385, 417, 448, 417, 418, 450, 449, 418, 419, 451, 450, 419, 420, 452, 451, 420, 421, 453, 452, 421, 422, 454, 453, 422, 423, 455, 454, 423, 424, 456, 455, 424, 425, 457, 456, 425, 426, 458, 457, 426, 427, 459, 458, 427, 428, 460, 459, 428, 429, 461, 460, 429, 430, 462, 461, 430, 431, 463, 462, 431, 432, 464, 463, 432, 433, 465, 464, 433, 434, 466, 465, 434, 435, 467, 466, 435, 436, 468, 467, 436, 437, 469, 468, 437, 438, 470, 469, 438, 439, 471, 470, 439, 440, 472, 471, 440, 441, 473, 472, 441, 442, 474, 473, 442, 443, 475, 474, 443, 444, 476, 475, 444, 445, 477, 476, 445, 446, 478, 477, 446, 447, 479, 478, 447, 448, 480, 479, 448, 417, 449, 480, 449, 450, 481, 450, 451, 481, 451, 452, 481, 452, 453, 481, 453, 454, 481, 454, 455, 481, 455, 456, 481, 456, 457, 481, 457, 458, 481, 458, 459, 481, 459, 460, 481, 460, 461, 481, 461, 462, 481, 462, 463, 481, 463, 464, 481, 464, 465, 481, 465, 466, 481, 466, 467, 481, 467, 468, 481, 468, 469, 481, 469, 470, 481, 470, 471, 481, 471, 472, 481, 472, 473, 481, 473, 474, 481, 474, 475, 481, 475, 476, 481, 476, 477, 481, 477, 478, 481, 478, 479, 481, 479, 480, 481, 480, 449, 481]
        rel material:binding = </Prop/Materials/LemonPeel>
        point3f[] points = [(-0.032, 0, 0.015000001), (-0.030829458, 0, 0.015172933), (-0.030851949, 0.0003425421, 0.015172933), (-0.03091856, 0.0006719205, 0.015172933), (-0.03102673, 0.00097547733, 0.015172933), (-0.031172302, 0.0012415472, 0.015172933), (-0.03134968, 0.0014599051, 0.015172933), (-0.031552054, 0.0016221595, 0.015172933), (-0.031771637, 0.0017220754, 0.015172933), (-0.032, 0.0017558128, 0.015172933), (-0.03222836, 0.0017220754, 0.015172933), (-0.032447945, 0.0016221595, 0.015172933), (-0.032650318, 0.0014599051, 0.015172933), (-0.032827698, 0.0012415472, 0.015172933), (-0.03297327, 0.00097547733, 0.015172933), (-0.03308144, 0.0006719205, 0.015172933), (-0.03314805, 0.0003425421, 0.015172933), (-0.033170544, 2.1502506e-19, 0.015172933), (-0.03314805, -0.0003425421, 0.015172933), (-0.03308144, -0.0006719205, 0.015172933), (-0.03297327, -0.00097547733, 0.015172933), (-0.032827698, -0.0012415472, 0.015172933), (-0.032650318, -0.0014599051, 0.015172933), (-0.032447945, -0.0016221595, 0.015172933), (-0.03222836, -0.0017220754, 0.015172933), (-0.032, -0.0017558128, 0.015172933), (-0.031771637, -0.0017220754, 0.015172933), (-0.031552054, -0.0016221595, 0.015172933), (-0.03134968, -0.0014599051, 0.015172933), (-0.031172302, -0.0012415472, 0.015172933), (-0.03102673, -0.00097547733, 0.015172933), (-0.03091856, -0.0006719205, 0.015172933), (-0.030851949, -0.0003425421, 0.015172933), (-0.0297039, 0, 0.015685085), (-0.029748019, 0.0006719205, 0.015685085), (-0.02987868, 0.0013180195, 0.015685085), (-0.030090863, 0.0019134677, 0.015685085), (-0.030376412, 0.0024353825, 0.015685085), (-0.030724354, 0.0028637068, 0.015685085), (-0.031121321, 0.0031819805, 0.015685085), (-0.031552054, 0.0033779724, 0.015685085), (-0.032, 0.0034441508, 0.015685085), (-0.032447945, 0.0033779724, 0.015685085), (-0.03287868, 0.0031819805, 0.015685085), (-0.033275645, 0.0028637068, 0.015685085), (-0.033623587, 0.0024353825, 0.015685085), (-0.03390914, 0.0019134677, 0.015685085), (-0.03412132, 0.0013180195, 0.015685085), (-0.03425198, 0.0006719205, 0.015685085), (-0.0342961, 4.2178681e-19, 0.015685085), (-0.03425198, -0.0006719205, 0.015685085), (-0.03412132, -0.0013180195, 0.015685085), (-0.03390914, -0.0019134677, 0.015685085), (-0.033623587, -0.0024353825, 0.015685085), (-0.033275645, -0.0028637068, 0.015685085), (-0.03287868, -0.0031819805, 0.015685085), (-0.032447945, -0.0033779724, 0.015685085), (-0.032, -0.0034441508, 0.015685085), (-0.031552054, -0.0033779724, 0.015685085), (-0.031121321, -0.0031819805, 0.015685085), (-0.030724354, -0.0028637068, 0.015685085), (-0.030376412, -0.0024353825, 0.015685085), (-0.030090863, -0.0019134677, 0.015685085), (-0.02987868, -0.0013180195, 0.015685085), (-0.029748019, -0.0006719205, 0.015685085), (-0.028666578, 0, 0.016516773), (-0.028730629, 0.00097547733, 0.016516773), (-0.02892032, 0.0019134677, 0.016516773), (-0.029228361, 0.0027779245, 0.016516773), (-0.029642915, 0.0035356272, 0.016516773), (-0.03014805, 0.0041574575, 0.016516773), (-0.030724354, 0.0046195197, 0.016516773), (-0.03134968, 0.004904056, 0.016516773), (-0.032, 0.0050001317, 0.016516773), (-0.032650318, 0.004904056, 0.016516773), (-0.033275645, 0.0046195197, 0.016516773), (-0.03385195, 0.0041574575, 0.016516773), (-0.034357086, 0.0035356272, 0.016516773), (-0.03477164, 0.0027779245, 0.016516773), (-0.03507968, 0.0019134677, 0.016516773), (-0.035269372, 0.00097547733, 0.016516773), (-0.03533342, 6.123395e-19, 0.016516773), (-0.035269372, -0.00097547733, 0.016516773), (-0.03507968, -0.0019134677, 0.016516773), (-0.03477164, -0.0027779245, 0.016516773), (-0.034357086, -0.0035356272, 0.016516773), (-0.03385195, -0.0041574575, 0.016516773), (-0.033275645, -0.0046195197, 0.016516773), (-0.032650318, -0.004904056, 0.016516773), (-0.032, -0.0050001317, 0.016516773), (-0.03134968, -0.004904056, 0.016516773), (-0.030724354, -0.0046195197, 0.016516773), (-0.03014805, -0.0041574575, 0.016516773), (-0.029642915, -0.0035356272, 0.016516773), (-0.029228361, -0.0027779245, 0.016516773), (-0.02892032, -0.0019134677, 0.016516773), (-0.028730629, -0.00097547733, 0.016516773), (-0.02775736, 0, 0.017636038), (-0.02783888, 0.0012415472, 0.017636038), (-0.02808031, 0.0024353825, 0.017636038), (-0.028472373, 0.0035356272, 0.017636038), (-0.029, 0.0045, 0.017636038), (-0.029642915, 0.00529144, 0.017636038), (-0.030376412, 0.005879533, 0.017636038), (-0.031172302, 0.006241679, 0.017636038), (-0.032, 0.006363961, 0.017636038), (-0.032827698, 0.006241679, 0.017636038), (-0.033623587, 0.005879533, 0.017636038), (-0.034357086, 0.00529144, 0.017636038), (-0.035, 0.0045, 0.017636038), (-0.035527628, 0.0035356272, 0.017636038), (-0.03591969, 0.0024353825, 0.017636038), (-0.03616112, 0.0012415472, 0.017636038), (-0.03624264, 7.793604e-19, 0.017636038), (-0.03616112, -0.0012415472, 0.017636038), (-0.03591969, -0.0024353825, 0.017636038), (-0.035527628, -0.0035356272, 0.017636038), (-0.035, -0.0045, 0.017636038), (-0.034357086, -0.00529144, 0.017636038), (-0.033623587, -0.005879533, 0.017636038), (-0.032827698, -0.006241679, 0.017636038), (-0.032, -0.006363961, 0.017636038), (-0.031172302, -0.006241679, 0.017636038), (-0.030376412, -0.005879533, 0.017636038), (-0.029642915, -0.00529144, 0.017636038), (-0.029, -0.0045, 0.017636038), (-0.028472373, -0.0035356272, 0.017636038), (-0.02808031, -0.0024353825, 0.017636038), (-0.02783888, -0.0012415472, 0.017636038), (-0.027011182, 0, 0.018999869), (-0.027107041, 0.0014599051, 0.018999869), (-0.027390933, 0.0028637068, 0.018999869), (-0.02785195, 0.0041574575, 0.018999869), (-0.028472373, 0.00529144, 0.018999869), (-0.029228361, 0.0062220753, 0.018999869), (-0.030090863, 0.0069135996, 0.018999869), (-0.03102673, 0.007339438, 0.018999869), (-0.032, 0.0074832262, 0.018999869), (-0.03297327, 0.007339438, 0.018999869), (-0.03390914, 0.0069135996, 0.018999869), (-0.03477164, 0.0062220753, 0.018999869), (-0.035527628, 0.00529144, 0.018999869), (-0.03614805, 0.0041574575, 0.018999869), (-0.036609065, 0.0028637068, 0.018999869), (-0.036892958, 0.0014599051, 0.018999869), (-0.036988817, 9.164309e-19, 0.018999869), (-0.036892958, -0.0014599051, 0.018999869), (-0.036609065, -0.0028637068, 0.018999869), (-0.03614805, -0.0041574575, 0.018999869), (-0.035527628, -0.00529144, 0.018999869), (-0.03477164, -0.0062220753, 0.018999869), (-0.03390914, -0.0069135996, 0.018999869), (-0.03297327, -0.007339438, 0.018999869), (-0.032, -0.0074832262, 0.018999869), (-0.03102673, -0.007339438, 0.018999869), (-0.030090863, -0.0069135996, 0.018999869), (-0.029228361, -0.0062220753, 0.018999869), (-0.028472373, -0.00529144, 0.018999869), (-0.02785195, -0.0041574575, 0.018999869), (-0.027390933, -0.0028637068, 0.018999869), (-0.027107041, -0.0014599051, 0.018999869), (-0.026456723, 0, 0.02055585), (-0.026563235, 0.0016221595, 0.02055585), (-0.02687868, 0.0031819805, 0.02055585), (-0.027390933, 0.0046195197, 0.02055585), (-0.02808031, 0.005879533, 0.02055585), (-0.02892032, 0.0069135996, 0.02055585), (-0.02987868, 0.0076819803, 0.02055585), (-0.03091856, 0.008155147, 0.02055585), (-0.032, 0.008314915, 0.02055585), (-0.03308144, 0.008155147, 0.02055585), (-0.03412132, 0.0076819803, 0.02055585), (-0.03507968, 0.0069135996, 0.02055585), (-0.03591969, 0.005879533, 0.02055585), (-0.036609065, 0.0046195197, 0.02055585), (-0.037121322, 0.0031819805, 0.02055585), (-0.037436765, 0.0016221595, 0.02055585), (-0.03754328, 1.0182834e-18, 0.02055585), (-0.037436765, -0.0016221595, 0.02055585), (-0.037121322, -0.0031819805, 0.02055585), (-0.036609065, -0.0046195197, 0.02055585), (-0.03591969, -0.005879533, 0.02055585), (-0.03507968, -0.0069135996, 0.02055585), (-0.03412132, -0.0076819803, 0.02055585), (-0.03308144, -0.008155147, 0.02055585), (-0.032, -0.008314915, 0.02055585), (-0.03091856, -0.008155147, 0.02055585), (-0.02987868, -0.0076819803, 0.02055585), (-0.02892032, -0.0069135996, 0.02055585), (-0.02808031, -0.005879533, 0.02055585), (-0.027390933, -0.0046195197, 0.02055585), (-0.02687868, -0.0031819805, 0.02055585), (-0.026563235, -0.0016221595, 0.02055585), (-0.026115289, 0, 0.022244187), (-0.02622836, 0.0017220754, 0.022244187), (-0.026563235, 0.0033779724, 0.022244187), (-0.027107041, 0.004904056, 0.022244187), (-0.02783888, 0.006241679, 0.022244187), (-0.028730629, 0.007339438, 0.022244187), (-0.029748019, 0.008155147, 0.022244187), (-0.030851949, 0.008657457, 0.022244187), (-0.032, 0.008827067, 0.022244187), (-0.03314805, 0.008657457, 0.022244187), (-0.03425198, 0.008155147, 0.022244187), (-0.035269372, 0.007339438, 0.022244187), (-0.03616112, 0.006241679, 0.022244187), (-0.036892958, 0.004904056, 0.022244187), (-0.037436765, 0.0033779724, 0.022244187), (-0.03777164, 0.0017220754, 0.022244187), (-0.037884712, 1.081004e-18, 0.022244187), (-0.03777164, -0.0017220754, 0.022244187), (-0.037436765, -0.0033779724, 0.022244187), (-0.036892958, -0.004904056, 0.022244187), (-0.03616112, -0.006241679, 0.022244187), (-0.035269372, -0.007339438, 0.022244187), (-0.03425198, -0.008155147, 0.022244187), (-0.03314805, -0.008657457, 0.022244187), (-0.032, -0.008827067, 0.022244187), (-0.030851949, -0.008657457, 0.022244187), (-0.029748019, -0.008155147, 0.022244187), (-0.028730629, -0.007339438, 0.022244187), (-0.02783888, -0.006241679, 0.022244187), (-0.027107041, -0.004904056, 0.022244187), (-0.026563235, -0.0033779724, 0.022244187), (-0.02622836, -0.0017220754, 0.022244187), (-0.026, 0, 0.024), (-0.026115289, 0.0017558128, 0.024), (-0.026456723, 0.0034441508, 0.024), (-0.027011182, 0.0050001317, 0.024), (-0.02775736, 0.006363961, 0.024), (-0.028666578, 0.0074832262, 0.024), (-0.0297039, 0.008314915, 0.024), (-0.030829458, 0.008827067, 0.024), (-0.032, 0.009, 0.024), (-0.033170544, 0.008827067, 0.024), (-0.0342961, 0.008314915, 0.024), (-0.03533342, 0.0074832262, 0.024), (-0.03624264, 0.006363961, 0.024), (-0.036988817, 0.0050001317, 0.024), (-0.03754328, 0.0034441508, 0.024), (-0.037884712, 0.0017558128, 0.024), (-0.038, 1.1021821e-18, 0.024), (-0.037884712, -0.0017558128, 0.024), (-0.03754328, -0.0034441508, 0.024), (-0.036988817, -0.0050001317, 0.024), (-0.03624264, -0.006363961, 0.024), (-0.03533342, -0.0074832262, 0.024), (-0.0342961, -0.008314915, 0.024), (-0.033170544, -0.008827067, 0.024), (-0.032, -0.009, 0.024), (-0.030829458, -0.008827067, 0.024), (-0.0297039, -0.008314915, 0.024), (-0.028666578, -0.0074832262, 0.024), (-0.02775736, -0.006363961, 0.024), (-0.027011182, -0.0050001317, 0.024), (-0.026456723, -0.0034441508, 0.024), (-0.026115289, -0.0017558128, 0.024), (-0.026115289, 0, 0.025755813), (-0.02622836, 0.0017220754, 0.025755813), (-0.026563235, 0.0033779724, 0.025755813), (-0.027107041, 0.004904056, 0.025755813), (-0.02783888, 0.006241679, 0.025755813), (-0.028730629, 0.007339438, 0.025755813), (-0.029748019, 0.008155147, 0.025755813), (-0.030851949, 0.008657457, 0.025755813), (-0.032, 0.008827067, 0.025755813), (-0.03314805, 0.008657457, 0.025755813), (-0.03425198, 0.008155147, 0.025755813), (-0.035269372, 0.007339438, 0.025755813), (-0.03616112, 0.006241679, 0.025755813), (-0.036892958, 0.004904056, 0.025755813), (-0.037436765, 0.0033779724, 0.025755813), (-0.03777164, 0.0017220754, 0.025755813), (-0.037884712, 1.081004e-18, 0.025755813), (-0.03777164, -0.0017220754, 0.025755813), (-0.037436765, -0.0033779724, 0.025755813), (-0.036892958, -0.004904056, 0.025755813), (-0.03616112, -0.006241679, 0.025755813), (-0.035269372, -0.007339438, 0.025755813), (-0.03425198, -0.008155147, 0.025755813), (-0.03314805, -0.008657457, 0.025755813), (-0.032, -0.008827067, 0.025755813), (-0.030851949, -0.008657457, 0.025755813), (-0.029748019, -0.008155147, 0.025755813), (-0.028730629, -0.007339438, 0.025755813), (-0.02783888, -0.006241679, 0.025755813), (-0.027107041, -0.004904056, 0.025755813), (-0.026563235, -0.0033779724, 0.025755813), (-0.02622836, -0.0017220754, 0.025755813), (-0.026456723, 0, 0.02744415), (-0.026563235, 0.0016221595, 0.02744415), (-0.02687868, 0.0031819805, 0.02744415), (-0.027390933, 0.0046195197, 0.02744415), (-0.02808031, 0.005879533, 0.02744415), (-0.02892032, 0.0069135996, 0.02744415), (-0.02987868, 0.0076819803, 0.02744415), (-0.03091856, 0.008155147, 0.02744415), (-0.032, 0.008314915, 0.02744415), (-0.03308144, 0.008155147, 0.02744415), (-0.03412132, 0.0076819803, 0.02744415), (-0.03507968, 0.0069135996, 0.02744415), (-0.03591969, 0.005879533, 0.02744415), (-0.036609065, 0.0046195197, 0.02744415), (-0.037121322, 0.0031819805, 0.02744415), (-0.037436765, 0.0016221595, 0.02744415), (-0.03754328, 1.0182834e-18, 0.02744415), (-0.037436765, -0.0016221595, 0.02744415), (-0.037121322, -0.0031819805, 0.02744415), (-0.036609065, -0.0046195197, 0.02744415), (-0.03591969, -0.005879533, 0.02744415), (-0.03507968, -0.0069135996, 0.02744415), (-0.03412132, -0.0076819803, 0.02744415), (-0.03308144, -0.008155147, 0.02744415), (-0.032, -0.008314915, 0.02744415), (-0.03091856, -0.008155147, 0.02744415), (-0.02987868, -0.0076819803, 0.02744415), (-0.02892032, -0.0069135996, 0.02744415), (-0.02808031, -0.005879533, 0.02744415), (-0.027390933, -0.0046195197, 0.02744415), (-0.02687868, -0.0031819805, 0.02744415), (-0.026563235, -0.0016221595, 0.02744415), (-0.027011182, 0, 0.029000131), (-0.027107041, 0.0014599051, 0.029000131), (-0.027390933, 0.0028637068, 0.029000131), (-0.02785195, 0.0041574575, 0.029000131), (-0.028472373, 0.00529144, 0.029000131), (-0.029228361, 0.0062220753, 0.029000131), (-0.030090863, 0.0069135996, 0.029000131), (-0.03102673, 0.007339438, 0.029000131), (-0.032, 0.0074832262, 0.029000131), (-0.03297327, 0.007339438, 0.029000131), (-0.03390914, 0.0069135996, 0.029000131), (-0.03477164, 0.0062220753, 0.029000131), (-0.035527628, 0.00529144, 0.029000131), (-0.03614805, 0.0041574575, 0.029000131), (-0.036609065, 0.0028637068, 0.029000131), (-0.036892958, 0.0014599051, 0.029000131), (-0.036988817, 9.164309e-19, 0.029000131), (-0.036892958, -0.0014599051, 0.029000131), (-0.036609065, -0.0028637068, 0.029000131), (-0.03614805, -0.0041574575, 0.029000131), (-0.035527628, -0.00529144, 0.029000131), (-0.03477164, -0.0062220753, 0.029000131), (-0.03390914, -0.0069135996, 0.029000131), (-0.03297327, -0.007339438, 0.029000131), (-0.032, -0.0074832262, 0.029000131), (-0.03102673, -0.007339438, 0.029000131), (-0.030090863, -0.0069135996, 0.029000131), (-0.029228361, -0.0062220753, 0.029000131), (-0.028472373, -0.00529144, 0.029000131), (-0.02785195, -0.0041574575, 0.029000131), (-0.027390933, -0.0028637068, 0.029000131), (-0.027107041, -0.0014599051, 0.029000131), (-0.02775736, 0, 0.03036396), (-0.02783888, 0.0012415472, 0.03036396), (-0.02808031, 0.0024353825, 0.03036396), (-0.028472373, 0.0035356272, 0.03036396), (-0.029, 0.0045, 0.03036396), (-0.029642915, 0.00529144, 0.03036396), (-0.030376412, 0.005879533, 0.03036396), (-0.031172302, 0.006241679, 0.03036396), (-0.032, 0.006363961, 0.03036396), (-0.032827698, 0.006241679, 0.03036396), (-0.033623587, 0.005879533, 0.03036396), (-0.034357086, 0.00529144, 0.03036396), (-0.035, 0.0045, 0.03036396), (-0.035527628, 0.0035356272, 0.03036396), (-0.03591969, 0.0024353825, 0.03036396), (-0.03616112, 0.0012415472, 0.03036396), (-0.03624264, 7.793604e-19, 0.03036396), (-0.03616112, -0.0012415472, 0.03036396), (-0.03591969, -0.0024353825, 0.03036396), (-0.035527628, -0.0035356272, 0.03036396), (-0.035, -0.0045, 0.03036396), (-0.034357086, -0.00529144, 0.03036396), (-0.033623587, -0.005879533, 0.03036396), (-0.032827698, -0.006241679, 0.03036396), (-0.032, -0.006363961, 0.03036396), (-0.031172302, -0.006241679, 0.03036396), (-0.030376412, -0.005879533, 0.03036396), (-0.029642915, -0.00529144, 0.03036396), (-0.029, -0.0045, 0.03036396), (-0.028472373, -0.0035356272, 0.03036396), (-0.02808031, -0.0024353825, 0.03036396), (-0.02783888, -0.0012415472, 0.03036396), (-0.028666578, 0, 0.031483226), (-0.028730629, 0.00097547733, 0.031483226), (-0.02892032, 0.0019134677, 0.031483226), (-0.029228361, 0.0027779245, 0.031483226), (-0.029642915, 0.0035356272, 0.031483226), (-0.03014805, 0.0041574575, 0.031483226), (-0.030724354, 0.0046195197, 0.031483226), (-0.03134968, 0.004904056, 0.031483226), (-0.032, 0.0050001317, 0.031483226), (-0.032650318, 0.004904056, 0.031483226), (-0.033275645, 0.0046195197, 0.031483226), (-0.03385195, 0.0041574575, 0.031483226), (-0.034357086, 0.0035356272, 0.031483226), (-0.03477164, 0.0027779245, 0.031483226), (-0.03507968, 0.0019134677, 0.031483226), (-0.035269372, 0.00097547733, 0.031483226), (-0.03533342, 6.123395e-19, 0.031483226), (-0.035269372, -0.00097547733, 0.031483226), (-0.03507968, -0.0019134677, 0.031483226), (-0.03477164, -0.0027779245, 0.031483226), (-0.034357086, -0.0035356272, 0.031483226), (-0.03385195, -0.0041574575, 0.031483226), (-0.033275645, -0.0046195197, 0.031483226), (-0.032650318, -0.004904056, 0.031483226), (-0.032, -0.0050001317, 0.031483226), (-0.03134968, -0.004904056, 0.031483226), (-0.030724354, -0.0046195197, 0.031483226), (-0.03014805, -0.0041574575, 0.031483226), (-0.029642915, -0.0035356272, 0.031483226), (-0.029228361, -0.0027779245, 0.031483226), (-0.02892032, -0.0019134677, 0.031483226), (-0.028730629, -0.00097547733, 0.031483226), (-0.0297039, 0, 0.032314915), (-0.029748019, 0.0006719205, 0.032314915), (-0.02987868, 0.0013180195, 0.032314915), (-0.030090863, 0.0019134677, 0.032314915), (-0.030376412, 0.0024353825, 0.032314915), (-0.030724354, 0.0028637068, 0.032314915), (-0.031121321, 0.0031819805, 0.032314915), (-0.031552054, 0.0033779724, 0.032314915), (-0.032, 0.0034441508, 0.032314915), (-0.032447945, 0.0033779724, 0.032314915), (-0.03287868, 0.0031819805, 0.032314915), (-0.033275645, 0.0028637068, 0.032314915), (-0.033623587, 0.0024353825, 0.032314915), (-0.03390914, 0.0019134677, 0.032314915), (-0.03412132, 0.0013180195, 0.032314915), (-0.03425198, 0.0006719205, 0.032314915), (-0.0342961, 4.2178681e-19, 0.032314915), (-0.03425198, -0.0006719205, 0.032314915), (-0.03412132, -0.0013180195, 0.032314915), (-0.03390914, -0.0019134677, 0.032314915), (-0.033623587, -0.0024353825, 0.032314915), (-0.033275645, -0.0028637068, 0.032314915), (-0.03287868, -0.0031819805, 0.032314915), (-0.032447945, -0.0033779724, 0.032314915), (-0.032, -0.0034441508, 0.032314915), (-0.031552054, -0.0033779724, 0.032314915), (-0.031121321, -0.0031819805, 0.032314915), (-0.030724354, -0.0028637068, 0.032314915), (-0.030376412, -0.0024353825, 0.032314915), (-0.030090863, -0.0019134677, 0.032314915), (-0.02987868, -0.0013180195, 0.032314915), (-0.029748019, -0.0006719205, 0.032314915), (-0.030829458, 0, 0.032827068), (-0.030851949, 0.0003425421, 0.032827068), (-0.03091856, 0.0006719205, 0.032827068), (-0.03102673, 0.00097547733, 0.032827068), (-0.031172302, 0.0012415472, 0.032827068), (-0.03134968, 0.0014599051, 0.032827068), (-0.031552054, 0.0016221595, 0.032827068), (-0.031771637, 0.0017220754, 0.032827068), (-0.032, 0.0017558128, 0.032827068), (-0.03222836, 0.0017220754, 0.032827068), (-0.032447945, 0.0016221595, 0.032827068), (-0.032650318, 0.0014599051, 0.032827068), (-0.032827698, 0.0012415472, 0.032827068), (-0.03297327, 0.00097547733, 0.032827068), (-0.03308144, 0.0006719205, 0.032827068), (-0.03314805, 0.0003425421, 0.032827068), (-0.033170544, 2.1502506e-19, 0.032827068), (-0.03314805, -0.0003425421, 0.032827068), (-0.03308144, -0.0006719205, 0.032827068), (-0.03297327, -0.00097547733, 0.032827068), (-0.032827698, -0.0012415472, 0.032827068), (-0.032650318, -0.0014599051, 0.032827068), (-0.032447945, -0.0016221595, 0.032827068), (-0.03222836, -0.0017220754, 0.032827068), (-0.032, -0.0017558128, 0.032827068), (-0.031771637, -0.0017220754, 0.032827068), (-0.031552054, -0.0016221595, 0.032827068), (-0.03134968, -0.0014599051, 0.032827068), (-0.031172302, -0.0012415472, 0.032827068), (-0.03102673, -0.00097547733, 0.032827068), (-0.03091856, -0.0006719205, 0.032827068), (-0.030851949, -0.0003425421, 0.032827068), (-0.032, 0, 0.033)]
        uniform token subdivisionScheme = "none"
    }

    def Mesh "TipRight" (
        prepend apiSchemas = ["MaterialBindingAPI"]
    )
    {
        float3[] extent = [(0.026, -0.009, 0.015000001), (0.038, 0.009, 0.033)]
        int[] faceVertexCounts = [3, 3, 3, 3, 3, 3, 3, 3, 3, 3, 3, 3, 3, 3, 3, 3, 3, 3, 3, 3, 3, 3, 3, 3, 3, 3, 3, 3, 3, 3, 3, 3, 4, 4, 4, 4, 4, 4, 4, 4, 4, 4, 4, 4, 4, 4, 4, 4, 4, 4, 4, 4, 4, 4, 4, 4, 4, 4, 4, 4, 4, 4, 4, 4, 4, 4, 4, 4, 4, 4, 4, 4, 4, 4, 4, 4, 4, 4, 4, 4, 4, 4, 4, 4, 4, 4, 4, 4, 4, 4, 4, 4, 4, 4, 4, 4, 4, 4, 4, 4, 4, 4, 4, 4, 4, 4, 4, 4, 4, 4, 4, 4, 4, 4, 4, 4, 4, 4, 4, 4, 4, 4, 4, 4, 4, 4, 4, 4, 4, 4, 4, 4, 4, 4, 4, 4, 4, 4, 4, 4, 4, 4, 4, 4, 4, 4, 4, 4, 4, 4, 4, 4, 4, 4, 4, 4, 4, 4, 4, 4, 4, 4, 4, 4, 4, 4, 4, 4, 4, 4, 4, 4, 4, 4, 4, 4, 4, 4, 4, 4, 4, 4, 4, 4, 4, 4, 4, 4, 4, 4, 4, 4, 4, 4, 4, 4, 4, 4, 4, 4, 4, 4, 4, 4, 4, 4, 4, 4, 4, 4, 4, 4, 4, 4, 4, 4, 4, 4, 4, 4, 4, 4, 4, 4, 4, 4, 4, 4, 4, 4, 4, 4, 4, 4, 4, 4, 4, 4, 4, 4, 4, 4, 4, 4, 4, 4, 4, 4, 4, 4, 4, 4, 4, 4, 4, 4, 4, 4, 4, 4, 4, 4, 4, 4, 4, 4, 4, 4, 4, 4, 4, 4, 4, 4, 4, 4, 4, 4, 4, 4, 4, 4, 4, 4, 4, 4, 4, 4, 4, 4, 4, 4, 4, 4, 4, 4, 4, 4, 4, 4, 4, 4, 4, 4, 4, 4, 4, 4, 4, 4, 4, 4, 4, 4, 4, 4, 4, 4, 4, 4, 4, 4, 4, 4, 4, 4, 4, 4, 4, 4, 4, 4, 4, 4, 4, 4, 4, 4, 4, 4, 4, 4, 4, 4, 4, 4, 4, 4, 4, 4, 4, 4, 4, 4, 4, 4, 4, 4, 4, 4, 4, 4, 4, 4, 4, 4, 4, 4, 4, 4, 4, 4, 4, 4, 4, 4, 4, 4, 4, 4, 4, 4, 4, 4, 4, 4, 4, 4, 4, 4, 4, 4, 4, 4, 4, 4, 4, 4, 4, 4, 4, 4, 4, 4, 4, 4, 4, 4, 4, 4, 4, 4, 4, 4, 4, 4, 4, 4, 4, 4, 4, 4, 4, 4, 4, 4, 4, 4, 4, 4, 4, 4, 4, 4, 4, 4, 4, 4, 4, 4, 4, 4, 4, 4, 4, 4, 4, 4, 4, 4, 4, 4, 4, 4, 4, 4, 4, 4, 4, 4, 4, 4, 4, 4, 4, 4, 4, 4, 4, 4, 4, 4, 4, 4, 4, 4, 4, 4, 4, 4, 3, 3, 3, 3, 3, 3, 3, 3, 3, 3, 3, 3, 3, 3, 3, 3, 3, 3, 3, 3, 3, 3, 3, 3, 3, 3, 3, 3, 3, 3, 3, 3]
        int[] faceVertexIndices = [0, 2, 1, 0, 3, 2, 0, 4, 3, 0, 5, 4, 0, 6, 5, 0, 7, 6, 0, 8, 7, 0, 9, 8, 0, 10, 9, 0, 11, 10, 0, 12, 11, 0, 13, 12, 0, 14, 13, 0, 15, 14, 0, 16, 15, 0, 17, 16, 0, 18, 17, 0, 19, 18, 0, 20, 19, 0, 21, 20, 0, 22, 21, 0, 23, 22, 0, 24, 23, 0, 25, 24, 0, 26, 25, 0, 27, 26, 0, 28, 27, 0, 29, 28, 0, 30, 29, 0, 31, 30, 0, 32, 31, 0, 1, 32, 1, 2, 34, 33, 2, 3, 35, 34, 3, 4, 36, 35, 4, 5, 37, 36, 5, 6, 38, 37, 6, 7, 39, 38, 7, 8, 40, 39, 8, 9, 41, 40, 9, 10, 42, 41, 10, 11, 43, 42, 11, 12, 44, 43, 12, 13, 45, 44, 13, 14, 46, 45, 14, 15, 47, 46, 15, 16, 48, 47, 16, 17, 49, 48, 17, 18, 50, 49, 18, 19, 51, 50, 19, 20, 52, 51, 20, 21, 53, 52, 21, 22, 54, 53, 22, 23, 55, 54, 23, 24, 56, 55, 24, 25, 57, 56, 25, 26, 58, 57, 26, 27, 59, 58, 27, 28, 60, 59, 28, 29, 61, 60, 29, 30, 62, 61, 30, 31, 63, 62, 31, 32, 64, 63, 32, 1, 33, 64, 33, 34, 66, 65, 34, 35, 67, 66, 35, 36, 68, 67, 36, 37, 69, 68, 37, 38, 70, 69, 38, 39, 71, 70, 39, 40, 72, 71, 40, 41, 73, 72, 41, 42, 74, 73, 42, 43, 75, 74, 43, 44, 76, 75, 44, 45, 77, 76, 45, 46, 78, 77, 46, 47, 79, 78, 47, 48, 80, 79, 48, 49, 81, 80, 49, 50, 82, 81, 50, 51, 83, 82, 51, 52, 84, 83, 52, 53, 85, 84, 53, 54, 86, 85, 54, 55, 87, 86, 55, 56, 88, 87, 56, 57, 89, 88, 57, 58, 90, 89, 58, 59, 91, 90, 59, 60, 92, 91, 60, 61, 93, 92, 61, 62, 94, 93, 62, 63, 95, 94, 63, 64, 96, 95, 64, 33, 65, 96, 65, 66, 98, 97, 66, 67, 99, 98, 67, 68, 100, 99, 68, 69, 101, 100, 69, 70, 102, 101, 70, 71, 103, 102, 71, 72, 104, 103, 72, 73, 105, 104, 73, 74, 106, 105, 74, 75, 107, 106, 75, 76, 108, 107, 76, 77, 109, 108, 77, 78, 110, 109, 78, 79, 111, 110, 79, 80, 112, 111, 80, 81, 113, 112, 81, 82, 114, 113, 82, 83, 115, 114, 83, 84, 116, 115, 84, 85, 117, 116, 85, 86, 118, 117, 86, 87, 119, 118, 87, 88, 120, 119, 88, 89, 121, 120, 89, 90, 122, 121, 90, 91, 123, 122, 91, 92, 124, 123, 92, 93, 125, 124, 93, 94, 126, 125, 94, 95, 127, 126, 95, 96, 128, 127, 96, 65, 97, 128, 97, 98, 130, 129, 98, 99, 131, 130, 99, 100, 132, 131, 100, 101, 133, 132, 101, 102, 134, 133, 102, 103, 135, 134, 103, 104, 136, 135, 104, 105, 137, 136, 105, 106, 138, 137, 106, 107, 139, 138, 107, 108, 140, 139, 108, 109, 141, 140, 109, 110, 142, 141, 110, 111, 143, 142, 111, 112, 144, 143, 112, 113, 145, 144, 113, 114, 146, 145, 114, 115, 147, 146, 115, 116, 148, 147, 116, 117, 149, 148, 117, 118, 150, 149, 118, 119, 151, 150, 119, 120, 152, 151, 120, 121, 153, 152, 121, 122, 154, 153, 122, 123, 155, 154, 123, 124, 156, 155, 124, 125, 157, 156, 125, 126, 158, 157, 126, 127, 159, 158, 127, 128, 160, 159, 128, 97, 129, 160, 129, 130, 162, 161, 130, 131, 163, 162, 131, 132, 164, 163, 132, 133, 165, 164, 133, 134, 166, 165, 134, 135, 167, 166, 135, 136, 168, 167, 136, 137, 169, 168, 137, 138, 170, 169, 138, 139, 171, 170, 139, 140, 172, 171, 140, 141, 173, 172, 141, 142, 174, 173, 142, 143, 175, 174, 143, 144, 176, 175, 144, 145, 177, 176, 145, 146, 178, 177, 146, 147, 179, 178, 147, 148, 180, 179, 148, 149, 181, 180, 149, 150, 182, 181, 150, 151, 183, 182, 151, 152, 184, 183, 152, 153, 185, 184, 153, 154, 186, 185, 154, 155, 187, 186, 155, 156, 188, 187, 156, 157, 189, 188, 157, 158, 190, 189, 158, 159, 191, 190, 159, 160, 192, 191, 160, 129, 161, 192, 161, 162, 194, 193, 162, 163, 195, 194, 163, 164, 196, 195, 164, 165, 197, 196, 165, 166, 198, 197, 166, 167, 199, 198, 167, 168, 200, 199, 168, 169, 201, 200, 169, 170, 202, 201, 170, 171, 203, 202, 171, 172, 204, 203, 172, 173, 205, 204, 173, 174, 206, 205, 174, 175, 207, 206, 175, 176, 208, 207, 176, 177, 209, 208, 177, 178, 210, 209, 178, 179, 211, 210, 179, 180, 212, 211, 180, 181, 213, 212, 181, 182, 214, 213, 182, 183, 215, 214, 183, 184, 216, 215, 184, 185, 217, 216, 185, 186, 218, 217, 186, 187, 219, 218, 187, 188, 220, 219, 188, 189, 221, 220, 189, 190, 222, 221, 190, 191, 223, 222, 191, 192, 224, 223, 192, 161, 193, 224, 193, 194, 226, 225, 194, 195, 227, 226, 195, 196, 228, 227, 196, 197, 229, 228, 197, 198, 230, 229, 198, 199, 231, 230, 199, 200, 232, 231, 200, 201, 233, 232, 201, 202, 234, 233, 202, 203, 235, 234, 203, 204, 236, 235, 204, 205, 237, 236, 205, 206, 238, 237, 206, 207, 239, 238, 207, 208, 240, 239, 208, 209, 241, 240, 209, 210, 242, 241, 210, 211, 243, 242, 211, 212, 244, 243, 212, 213, 245, 244, 213, 214, 246, 245, 214, 215, 247, 246, 215, 216, 248, 247, 216, 217, 249, 248, 217, 218, 250, 249, 218, 219, 251, 250, 219, 220, 252, 251, 220, 221, 253, 252, 221, 222, 254, 253, 222, 223, 255, 254, 223, 224, 256, 255, 224, 193, 225, 256, 225, 226, 258, 257, 226, 227, 259, 258, 227, 228, 260, 259, 228, 229, 261, 260, 229, 230, 262, 261, 230, 231, 263, 262, 231, 232, 264, 263, 232, 233, 265, 264, 233, 234, 266, 265, 234, 235, 267, 266, 235, 236, 268, 267, 236, 237, 269, 268, 237, 238, 270, 269, 238, 239, 271, 270, 239, 240, 272, 271, 240, 241, 273, 272, 241, 242, 274, 273, 242, 243, 275, 274, 243, 244, 276, 275, 244, 245, 277, 276, 245, 246, 278, 277, 246, 247, 279, 278, 247, 248, 280, 279, 248, 249, 281, 280, 249, 250, 282, 281, 250, 251, 283, 282, 251, 252, 284, 283, 252, 253, 285, 284, 253, 254, 286, 285, 254, 255, 287, 286, 255, 256, 288, 287, 256, 225, 257, 288, 257, 258, 290, 289, 258, 259, 291, 290, 259, 260, 292, 291, 260, 261, 293, 292, 261, 262, 294, 293, 262, 263, 295, 294, 263, 264, 296, 295, 264, 265, 297, 296, 265, 266, 298, 297, 266, 267, 299, 298, 267, 268, 300, 299, 268, 269, 301, 300, 269, 270, 302, 301, 270, 271, 303, 302, 271, 272, 304, 303, 272, 273, 305, 304, 273, 274, 306, 305, 274, 275, 307, 306, 275, 276, 308, 307, 276, 277, 309, 308, 277, 278, 310, 309, 278, 279, 311, 310, 279, 280, 312, 311, 280, 281, 313, 312, 281, 282, 314, 313, 282, 283, 315, 314, 283, 284, 316, 315, 284, 285, 317, 316, 285, 286, 318, 317, 286, 287, 319, 318, 287, 288, 320, 319, 288, 257, 289, 320, 289, 290, 322, 321, 290, 291, 323, 322, 291, 292, 324, 323, 292, 293, 325, 324, 293, 294, 326, 325, 294, 295, 327, 326, 295, 296, 328, 327, 296, 297, 329, 328, 297, 298, 330, 329, 298, 299, 331, 330, 299, 300, 332, 331, 300, 301, 333, 332, 301, 302, 334, 333, 302, 303, 335, 334, 303, 304, 336, 335, 304, 305, 337, 336, 305, 306, 338, 337, 306, 307, 339, 338, 307, 308, 340, 339, 308, 309, 341, 340, 309, 310, 342, 341, 310, 311, 343, 342, 311, 312, 344, 343, 312, 313, 345, 344, 313, 314, 346, 345, 314, 315, 347, 346, 315, 316, 348, 347, 316, 317, 349, 348, 317, 318, 350, 349, 318, 319, 351, 350, 319, 320, 352, 351, 320, 289, 321, 352, 321, 322, 354, 353, 322, 323, 355, 354, 323, 324, 356, 355, 324, 325, 357, 356, 325, 326, 358, 357, 326, 327, 359, 358, 327, 328, 360, 359, 328, 329, 361, 360, 329, 330, 362, 361, 330, 331, 363, 362, 331, 332, 364, 363, 332, 333, 365, 364, 333, 334, 366, 365, 334, 335, 367, 366, 335, 336, 368, 367, 336, 337, 369, 368, 337, 338, 370, 369, 338, 339, 371, 370, 339, 340, 372, 371, 340, 341, 373, 372, 341, 342, 374, 373, 342, 343, 375, 374, 343, 344, 376, 375, 344, 345, 377, 376, 345, 346, 378, 377, 346, 347, 379, 378, 347, 348, 380, 379, 348, 349, 381, 380, 349, 350, 382, 381, 350, 351, 383, 382, 351, 352, 384, 383, 352, 321, 353, 384, 353, 354, 386, 385, 354, 355, 387, 386, 355, 356, 388, 387, 356, 357, 389, 388, 357, 358, 390, 389, 358, 359, 391, 390, 359, 360, 392, 391, 360, 361, 393, 392, 361, 362, 394, 393, 362, 363, 395, 394, 363, 364, 396, 395, 364, 365, 397, 396, 365, 366, 398, 397, 366, 367, 399, 398, 367, 368, 400, 399, 368, 369, 401, 400, 369, 370, 402, 401, 370, 371, 403, 402, 371, 372, 404, 403, 372, 373, 405, 404, 373, 374, 406, 405, 374, 375, 407, 406, 375, 376, 408, 407, 376, 377, 409, 408, 377, 378, 410, 409, 378, 379, 411, 410, 379, 380, 412, 411, 380, 381, 413, 412, 381, 382, 414, 413, 382, 383, 415, 414, 383, 384, 416, 415, 384, 353, 385, 416, 385, 386, 418, 417, 386, 387, 419, 418, 387, 388, 420, 419, 388, 389, 421, 420, 389, 390, 422, 421, 390, 391, 423, 422, 391, 392, 424, 423, 392, 393, 425, 424, 393, 394, 426, 425, 394, 395, 427, 426, 395, 396, 428, 427, 396, 397, 429, 428, 397, 398, 430, 429, 398, 399, 431, 430, 399, 400, 432, 431, 400, 401, 433, 432, 401, 402, 434, 433, 402, 403, 435, 434, 403, 404, 436, 435, 404, 405, 437, 436, 405, 406, 438, 437, 406, 407, 439, 438, 407, 408, 440, 439, 408, 409, 441, 440, 409, 410, 442, 441, 410, 411, 443, 442, 411, 412, 444, 443, 412, 413, 445, 444, 413, 414, 446, 445, 414, 415, 447, 446, 415, 416, 448, 447, 416, 385, 417, 448, 417, 418, 450, 449, 418, 419, 451, 450, 419, 420, 452, 451, 420, 421, 453, 452, 421, 422, 454, 453, 422, 423, 455, 454, 423, 424, 456, 455, 424, 425, 457, 456, 425, 426, 458, 457, 426, 427, 459, 458, 427, 428, 460, 459, 428, 429, 461, 460, 429, 430, 462, 461, 430, 431, 463, 462, 431, 432, 464, 463, 432, 433, 465, 464, 433, 434, 466, 465, 434, 435, 467, 466, 435, 436, 468, 467, 436, 437, 469, 468, 437, 438, 470, 469, 438, 439, 471, 470, 439, 440, 472, 471, 440, 441, 473, 472, 441, 442, 474, 473, 442, 443, 475, 474, 443, 444, 476, 475, 444, 445, 477, 476, 445, 446, 478, 477, 446, 447, 479, 478, 447, 448, 480, 479, 448, 417, 449, 480, 449, 450, 481, 450, 451, 481, 451, 452, 481, 452, 453, 481, 453, 454, 481, 454, 455, 481, 455, 456, 481, 456, 457, 481, 457, 458, 481, 458, 459, 481, 459, 460, 481, 460, 461, 481, 461, 462, 481, 462, 463, 481, 463, 464, 481, 464, 465, 481, 465, 466, 481, 466, 467, 481, 467, 468, 481, 468, 469, 481, 469, 470, 481, 470, 471, 481, 471, 472, 481, 472, 473, 481, 473, 474, 481, 474, 475, 481, 475, 476, 481, 476, 477, 481, 477, 478, 481, 478, 479, 481, 479, 480, 481, 480, 449, 481]
        rel material:binding = </Prop/Materials/LemonPeel>
        point3f[] points = [(0.032, 0, 0.015000001), (0.033170544, 0, 0.015172933), (0.03314805, 0.0003425421, 0.015172933), (0.03308144, 0.0006719205, 0.015172933), (0.03297327, 0.00097547733, 0.015172933), (0.032827698, 0.0012415472, 0.015172933), (0.032650318, 0.0014599051, 0.015172933), (0.032447945, 0.0016221595, 0.015172933), (0.03222836, 0.0017220754, 0.015172933), (0.032, 0.0017558128, 0.015172933), (0.031771637, 0.0017220754, 0.015172933), (0.031552054, 0.0016221595, 0.015172933), (0.03134968, 0.0014599051, 0.015172933), (0.031172302, 0.0012415472, 0.015172933), (0.03102673, 0.00097547733, 0.015172933), (0.03091856, 0.0006719205, 0.015172933), (0.030851949, 0.0003425421, 0.015172933), (0.030829458, 2.1502506e-19, 0.015172933), (0.030851949, -0.0003425421, 0.015172933), (0.03091856, -0.0006719205, 0.015172933), (0.03102673, -0.00097547733, 0.015172933), (0.031172302, -0.0012415472, 0.015172933), (0.03134968, -0.0014599051, 0.015172933), (0.031552054, -0.0016221595, 0.015172933), (0.031771637, -0.0017220754, 0.015172933), (0.032, -0.0017558128, 0.015172933), (0.03222836, -0.0017220754, 0.015172933), (0.032447945, -0.0016221595, 0.015172933), (0.032650318, -0.0014599051, 0.015172933), (0.032827698, -0.0012415472, 0.015172933), (0.03297327, -0.00097547733, 0.015172933), (0.03308144, -0.0006719205, 0.015172933), (0.03314805, -0.0003425421, 0.015172933), (0.0342961, 0, 0.015685085), (0.03425198, 0.0006719205, 0.015685085), (0.03412132, 0.0013180195, 0.015685085), (0.03390914, 0.0019134677, 0.015685085), (0.033623587, 0.0024353825, 0.015685085), (0.033275645, 0.0028637068, 0.015685085), (0.03287868, 0.0031819805, 0.015685085), (0.032447945, 0.0033779724, 0.015685085), (0.032, 0.0034441508, 0.015685085), (0.031552054, 0.0033779724, 0.015685085), (0.031121321, 0.0031819805, 0.015685085), (0.030724354, 0.0028637068, 0.015685085), (0.030376412, 0.0024353825, 0.015685085), (0.030090863, 0.0019134677, 0.015685085), (0.02987868, 0.0013180195, 0.015685085), (0.029748019, 0.0006719205, 0.015685085), (0.0297039, 4.2178681e-19, 0.015685085), (0.029748019, -0.0006719205, 0.015685085), (0.02987868, -0.0013180195, 0.015685085), (0.030090863, -0.0019134677, 0.015685085), (0.030376412, -0.0024353825, 0.015685085), (0.030724354, -0.0028637068, 0.015685085), (0.031121321, -0.0031819805, 0.015685085), (0.031552054, -0.0033779724, 0.015685085), (0.032, -0.0034441508, 0.015685085), (0.032447945, -0.0033779724, 0.015685085), (0.03287868, -0.0031819805, 0.015685085), (0.033275645, -0.0028637068, 0.015685085), (0.033623587, -0.0024353825, 0.015685085), (0.03390914, -0.0019134677, 0.015685085), (0.03412132, -0.0013180195, 0.015685085), (0.03425198, -0.0006719205, 0.015685085), (0.03533342, 0, 0.016516773), (0.035269372, 0.00097547733, 0.016516773), (0.03507968, 0.0019134677, 0.016516773), (0.03477164, 0.0027779245, 0.016516773), (0.034357086, 0.0035356272, 0.016516773), (0.03385195, 0.0041574575, 0.016516773), (0.033275645, 0.0046195197, 0.016516773), (0.032650318, 0.004904056, 0.016516773), (0.032, 0.0050001317, 0.016516773), (0.03134968, 0.004904056, 0.016516773), (0.030724354, 0.0046195197, 0.016516773), (0.03014805, 0.0041574575, 0.016516773), (0.029642915, 0.0035356272, 0.016516773), (0.029228361, 0.0027779245, 0.016516773), (0.02892032, 0.0019134677, 0.016516773), (0.028730629, 0.00097547733, 0.016516773), (0.028666578, 6.123395e-19, 0.016516773), (0.028730629, -0.00097547733, 0.016516773), (0.02892032, -0.0019134677, 0.016516773), (0.029228361, -0.0027779245, 0.016516773), (0.029642915, -0.0035356272, 0.016516773), (0.03014805, -0.0041574575, 0.016516773), (0.030724354, -0.0046195197, 0.016516773), (0.03134968, -0.004904056, 0.016516773), (0.032, -0.0050001317, 0.016516773), (0.032650318, -0.004904056, 0.016516773), (0.033275645, -0.0046195197, 0.016516773), (0.03385195, -0.0041574575, 0.016516773), (0.034357086, -0.0035356272, 0.016516773), (0.03477164, -0.0027779245, 0.016516773), (0.03507968, -0.0019134677, 0.016516773), (0.035269372, -0.00097547733, 0.016516773), (0.03624264, 0, 0.017636038), (0.03616112, 0.0012415472, 0.017636038), (0.03591969, 0.0024353825, 0.017636038), (0.035527628, 0.0035356272, 0.017636038), (0.035, 0.0045, 0.017636038), (0.034357086, 0.00529144, 0.017636038), (0.033623587, 0.005879533, 0.017636038), (0.032827698, 0.006241679, 0.017636038), (0.032, 0.006363961, 0.017636038), (0.031172302, 0.006241679, 0.017636038), (0.030376412, 0.005879533, 0.017636038), (0.029642915, 0.00529144, 0.017636038), (0.029, 0.0045, 0.017636038), (0.028472373, 0.0035356272, 0.017636038), (0.02808031, 0.0024353825, 0.017636038), (0.02783888, 0.0012415472, 0.017636038), (0.02775736, 7.793604e-19, 0.017636038), (0.02783888, -0.0012415472, 0.017636038), (0.02808031, -0.0024353825, 0.017636038), (0.028472373, -0.0035356272, 0.017636038), (0.029, -0.0045, 0.017636038), (0.029642915, -0.00529144, 0.017636038), (0.030376412, -0.005879533, 0.017636038), (0.031172302, -0.006241679, 0.017636038), (0.032, -0.006363961, 0.017636038), (0.032827698, -0.006241679, 0.017636038), (0.033623587, -0.005879533, 0.017636038), (0.034357086, -0.00529144, 0.017636038), (0.035, -0.0045, 0.017636038), (0.035527628, -0.0035356272, 0.017636038), (0.03591969, -0.0024353825, 0.017636038), (0.03616112, -0.0012415472, 0.017636038), (0.036988817, 0, 0.018999869), (0.036892958, 0.0014599051, 0.018999869), (0.036609065, 0.0028637068, 0.018999869), (0.03614805, 0.0041574575, 0.018999869), (0.035527628, 0.00529144, 0.018999869), (0.03477164, 0.0062220753, 0.018999869), (0.03390914, 0.0069135996, 0.018999869), (0.03297327, 0.007339438, 0.018999869), (0.032, 0.0074832262, 0.018999869), (0.03102673, 0.007339438, 0.018999869), (0.030090863, 0.0069135996, 0.018999869), (0.029228361, 0.0062220753, 0.018999869), (0.028472373, 0.00529144, 0.018999869), (0.02785195, 0.0041574575, 0.018999869), (0.027390933, 0.0028637068, 0.018999869), (0.027107041, 0.0014599051, 0.018999869), (0.027011182, 9.164309e-19, 0.018999869), (0.027107041, -0.0014599051, 0.018999869), (0.027390933, -0.0028637068, 0.018999869), (0.02785195, -0.0041574575, 0.018999869), (0.028472373, -0.00529144, 0.018999869), (0.029228361, -0.0062220753, 0.018999869), (0.030090863, -0.0069135996, 0.018999869), (0.03102673, -0.007339438, 0.018999869), (0.032, -0.0074832262, 0.018999869), (0.03297327, -0.007339438, 0.018999869), (0.03390914, -0.0069135996, 0.018999869), (0.03477164, -0.0062220753, 0.018999869), (0.035527628, -0.00529144, 0.018999869), (0.03614805, -0.0041574575, 0.018999869), (0.036609065, -0.0028637068, 0.018999869), (0.036892958, -0.0014599051, 0.018999869), (0.03754328, 0, 0.02055585), (0.037436765, 0.0016221595, 0.02055585), (0.037121322, 0.0031819805, 0.02055585), (0.036609065, 0.0046195197, 0.02055585), (0.03591969, 0.005879533, 0.02055585), (0.03507968, 0.0069135996, 0.02055585), (0.03412132, 0.0076819803, 0.02055585), (0.03308144, 0.008155147, 0.02055585), (0.032, 0.008314915, 0.02055585), (0.03091856, 0.008155147, 0.02055585), (0.02987868, 0.0076819803, 0.02055585), (0.02892032, 0.0069135996, 0.02055585), (0.02808031, 0.005879533, 0.02055585), (0.027390933, 0.0046195197, 0.02055585), (0.02687868, 0.0031819805, 0.02055585), (0.026563235, 0.0016221595, 0.02055585), (0.026456723, 1.0182834e-18, 0.02055585), (0.026563235, -0.0016221595, 0.02055585), (0.02687868, -0.0031819805, 0.02055585), (0.027390933, -0.0046195197, 0.02055585), (0.02808031, -0.005879533, 0.02055585), (0.02892032, -0.0069135996, 0.02055585), (0.02987868, -0.0076819803, 0.02055585), (0.03091856, -0.008155147, 0.02055585), (0.032, -0.008314915, 0.02055585), (0.03308144, -0.008155147, 0.02055585), (0.03412132, -0.0076819803, 0.02055585), (0.03507968, -0.0069135996, 0.02055585), (0.03591969, -0.005879533, 0.02055585), (0.036609065, -0.0046195197, 0.02055585), (0.037121322, -0.0031819805, 0.02055585), (0.037436765, -0.0016221595, 0.02055585), (0.037884712, 0, 0.022244187), (0.03777164, 0.0017220754, 0.022244187), (0.037436765, 0.0033779724, 0.022244187), (0.036892958, 0.004904056, 0.022244187), (0.03616112, 0.006241679, 0.022244187), (0.035269372, 0.007339438, 0.022244187), (0.03425198, 0.008155147, 0.022244187), (0.03314805, 0.008657457, 0.022244187), (0.032, 0.008827067, 0.022244187), (0.030851949, 0.008657457, 0.022244187), (0.029748019, 0.008155147, 0.022244187), (0.028730629, 0.007339438, 0.022244187), (0.02783888, 0.006241679, 0.022244187), (0.027107041, 0.004904056, 0.022244187), (0.026563235, 0.0033779724, 0.022244187), (0.02622836, 0.0017220754, 0.022244187), (0.026115289, 1.081004e-18, 0.022244187), (0.02622836, -0.0017220754, 0.022244187), (0.026563235, -0.0033779724, 0.022244187), (0.027107041, -0.004904056, 0.022244187), (0.02783888, -0.006241679, 0.022244187), (0.028730629, -0.007339438, 0.022244187), (0.029748019, -0.008155147, 0.022244187), (0.030851949, -0.008657457, 0.022244187), (0.032, -0.008827067, 0.022244187), (0.03314805, -0.008657457, 0.022244187), (0.03425198, -0.008155147, 0.022244187), (0.035269372, -0.007339438, 0.022244187), (0.03616112, -0.006241679, 0.022244187), (0.036892958, -0.004904056, 0.022244187), (0.037436765, -0.0033779724, 0.022244187), (0.03777164, -0.0017220754, 0.022244187), (0.038, 0, 0.024), (0.037884712, 0.0017558128, 0.024), (0.03754328, 0.0034441508, 0.024), (0.036988817, 0.0050001317, 0.024), (0.03624264, 0.006363961, 0.024), (0.03533342, 0.0074832262, 0.024), (0.0342961, 0.008314915, 0.024), (0.033170544, 0.008827067, 0.024), (0.032, 0.009, 0.024), (0.030829458, 0.008827067, 0.024), (0.0297039, 0.008314915, 0.024), (0.028666578, 0.0074832262, 0.024), (0.02775736, 0.006363961, 0.024), (0.027011182, 0.0050001317, 0.024), (0.026456723, 0.0034441508, 0.024), (0.026115289, 0.0017558128, 0.024), (0.026, 1.1021821e-18, 0.024), (0.026115289, -0.0017558128, 0.024), (0.026456723, -0.0034441508, 0.024), (0.027011182, -0.0050001317, 0.024), (0.02775736, -0.006363961, 0.024), (0.028666578, -0.0074832262, 0.024), (0.0297039, -0.008314915, 0.024), (0.030829458, -0.008827067, 0.024), (0.032, -0.009, 0.024), (0.033170544, -0.008827067, 0.024), (0.0342961, -0.008314915, 0.024), (0.03533342, -0.0074832262, 0.024), (0.03624264, -0.006363961, 0.024), (0.036988817, -0.0050001317, 0.024), (0.03754328, -0.0034441508, 0.024), (0.037884712, -0.0017558128, 0.024), (0.037884712, 0, 0.025755813), (0.03777164, 0.0017220754, 0.025755813), (0.037436765, 0.0033779724, 0.025755813), (0.036892958, 0.004904056, 0.025755813), (0.03616112, 0.006241679, 0.025755813), (0.035269372, 0.007339438, 0.025755813), (0.03425198, 0.008155147, 0.025755813), (0.03314805, 0.008657457, 0.025755813), (0.032, 0.008827067, 0.025755813), (0.030851949, 0.008657457, 0.025755813), (0.029748019, 0.008155147, 0.025755813), (0.028730629, 0.007339438, 0.025755813), (0.02783888, 0.006241679, 0.025755813), (0.027107041, 0.004904056, 0.025755813), (0.026563235, 0.0033779724, 0.025755813), (0.02622836, 0.0017220754, 0.025755813), (0.026115289, 1.081004e-18, 0.025755813), (0.02622836, -0.0017220754, 0.025755813), (0.026563235, -0.0033779724, 0.025755813), (0.027107041, -0.004904056, 0.025755813), (0.02783888, -0.006241679, 0.025755813), (0.028730629, -0.007339438, 0.025755813), (0.029748019, -0.008155147, 0.025755813), (0.030851949, -0.008657457, 0.025755813), (0.032, -0.008827067, 0.025755813), (0.03314805, -0.008657457, 0.025755813), (0.03425198, -0.008155147, 0.025755813), (0.035269372, -0.007339438, 0.025755813), (0.03616112, -0.006241679, 0.025755813), (0.036892958, -0.004904056, 0.025755813), (0.037436765, -0.0033779724, 0.025755813), (0.03777164, -0.0017220754, 0.025755813), (0.03754328, 0, 0.02744415), (0.037436765, 0.0016221595, 0.02744415), (0.037121322, 0.0031819805, 0.02744415), (0.036609065, 0.0046195197, 0.02744415), (0.03591969, 0.005879533, 0.02744415), (0.03507968, 0.0069135996, 0.02744415), (0.03412132, 0.0076819803, 0.02744415), (0.03308144, 0.008155147, 0.02744415), (0.032, 0.008314915, 0.02744415), (0.03091856, 0.008155147, 0.02744415), (0.02987868, 0.0076819803, 0.02744415), (0.02892032, 0.0069135996, 0.02744415), (0.02808031, 0.005879533, 0.02744415), (0.027390933, 0.0046195197, 0.02744415), (0.02687868, 0.0031819805, 0.02744415), (0.026563235, 0.0016221595, 0.02744415), (0.026456723, 1.0182834e-18, 0.02744415), (0.026563235, -0.0016221595, 0.02744415), (0.02687868, -0.0031819805, 0.02744415), (0.027390933, -0.0046195197, 0.02744415), (0.02808031, -0.005879533, 0.02744415), (0.02892032, -0.0069135996, 0.02744415), (0.02987868, -0.0076819803, 0.02744415), (0.03091856, -0.008155147, 0.02744415), (0.032, -0.008314915, 0.02744415), (0.03308144, -0.008155147, 0.02744415), (0.03412132, -0.0076819803, 0.02744415), (0.03507968, -0.0069135996, 0.02744415), (0.03591969, -0.005879533, 0.02744415), (0.036609065, -0.0046195197, 0.02744415), (0.037121322, -0.0031819805, 0.02744415), (0.037436765, -0.0016221595, 0.02744415), (0.036988817, 0, 0.029000131), (0.036892958, 0.0014599051, 0.029000131), (0.036609065, 0.0028637068, 0.029000131), (0.03614805, 0.0041574575, 0.029000131), (0.035527628, 0.00529144, 0.029000131), (0.03477164, 0.0062220753, 0.029000131), (0.03390914, 0.0069135996, 0.029000131), (0.03297327, 0.007339438, 0.029000131), (0.032, 0.0074832262, 0.029000131), (0.03102673, 0.007339438, 0.029000131), (0.030090863, 0.0069135996, 0.029000131), (0.029228361, 0.0062220753, 0.029000131), (0.028472373, 0.00529144, 0.029000131), (0.02785195, 0.0041574575, 0.029000131), (0.027390933, 0.0028637068, 0.029000131), (0.027107041, 0.0014599051, 0.029000131), (0.027011182, 9.164309e-19, 0.029000131), (0.027107041, -0.0014599051, 0.029000131), (0.027390933, -0.0028637068, 0.029000131), (0.02785195, -0.0041574575, 0.029000131), (0.028472373, -0.00529144, 0.029000131), (0.029228361, -0.0062220753, 0.029000131), (0.030090863, -0.0069135996, 0.029000131), (0.03102673, -0.007339438, 0.029000131), (0.032, -0.0074832262, 0.029000131), (0.03297327, -0.007339438, 0.029000131), (0.03390914, -0.0069135996, 0.029000131), (0.03477164, -0.0062220753, 0.029000131), (0.035527628, -0.00529144, 0.029000131), (0.03614805, -0.0041574575, 0.029000131), (0.036609065, -0.0028637068, 0.029000131), (0.036892958, -0.0014599051, 0.029000131), (0.03624264, 0, 0.03036396), (0.03616112, 0.0012415472, 0.03036396), (0.03591969, 0.0024353825, 0.03036396), (0.035527628, 0.0035356272, 0.03036396), (0.035, 0.0045, 0.03036396), (0.034357086, 0.00529144, 0.03036396), (0.033623587, 0.005879533, 0.03036396), (0.032827698, 0.006241679, 0.03036396), (0.032, 0.006363961, 0.03036396), (0.031172302, 0.006241679, 0.03036396), (0.030376412, 0.005879533, 0.03036396), (0.029642915, 0.00529144, 0.03036396), (0.029, 0.0045, 0.03036396), (0.028472373, 0.0035356272, 0.03036396), (0.02808031, 0.0024353825, 0.03036396), (0.02783888, 0.0012415472, 0.03036396), (0.02775736, 7.793604e-19, 0.03036396), (0.02783888, -0.0012415472, 0.03036396), (0.02808031, -0.0024353825, 0.03036396), (0.028472373, -0.0035356272, 0.03036396), (0.029, -0.0045, 0.03036396), (0.029642915, -0.00529144, 0.03036396), (0.030376412, -0.005879533, 0.03036396), (0.031172302, -0.006241679, 0.03036396), (0.032, -0.006363961, 0.03036396), (0.032827698, -0.006241679, 0.03036396), (0.033623587, -0.005879533, 0.03036396), (0.034357086, -0.00529144, 0.03036396), (0.035, -0.0045, 0.03036396), (0.035527628, -0.0035356272, 0.03036396), (0.03591969, -0.0024353825, 0.03036396), (0.03616112, -0.0012415472, 0.03036396), (0.03533342, 0, 0.031483226), (0.035269372, 0.00097547733, 0.031483226), (0.03507968, 0.0019134677, 0.031483226), (0.03477164, 0.0027779245, 0.031483226), (0.034357086, 0.0035356272, 0.031483226), (0.03385195, 0.0041574575, 0.031483226), (0.033275645, 0.0046195197, 0.031483226), (0.032650318, 0.004904056, 0.031483226), (0.032, 0.0050001317, 0.031483226), (0.03134968, 0.004904056, 0.031483226), (0.030724354, 0.0046195197, 0.031483226), (0.03014805, 0.0041574575, 0.031483226), (0.029642915, 0.0035356272, 0.031483226), (0.029228361, 0.0027779245, 0.031483226), (0.02892032, 0.0019134677, 0.031483226), (0.028730629, 0.00097547733, 0.031483226), (0.028666578, 6.123395e-19, 0.031483226), (0.028730629, -0.00097547733, 0.031483226), (0.02892032, -0.0019134677, 0.031483226), (0.029228361, -0.0027779245, 0.031483226), (0.029642915, -0.0035356272, 0.031483226), (0.03014805, -0.0041574575, 0.031483226), (0.030724354, -0.0046195197, 0.031483226), (0.03134968, -0.004904056, 0.031483226), (0.032, -0.0050001317, 0.031483226), (0.032650318, -0.004904056, 0.031483226), (0.033275645, -0.0046195197, 0.031483226), (0.03385195, -0.0041574575, 0.031483226), (0.034357086, -0.0035356272, 0.031483226), (0.03477164, -0.0027779245, 0.031483226), (0.03507968, -0.0019134677, 0.031483226), (0.035269372, -0.00097547733, 0.031483226), (0.0342961, 0, 0.032314915), (0.03425198, 0.0006719205, 0.032314915), (0.03412132, 0.0013180195, 0.032314915), (0.03390914, 0.0019134677, 0.032314915), (0.033623587, 0.0024353825, 0.032314915), (0.033275645, 0.0028637068, 0.032314915), (0.03287868, 0.0031819805, 0.032314915), (0.032447945, 0.0033779724, 0.032314915), (0.032, 0.0034441508, 0.032314915), (0.031552054, 0.0033779724, 0.032314915), (0.031121321, 0.0031819805, 0.032314915), (0.030724354, 0.0028637068, 0.032314915), (0.030376412, 0.0024353825, 0.032314915), (0.030090863, 0.0019134677, 0.032314915), (0.02987868, 0.0013180195, 0.032314915), (0.029748019, 0.0006719205, 0.032314915), (0.0297039, 4.2178681e-19, 0.032314915), (0.029748019, -0.0006719205, 0.032314915), (0.02987868, -0.0013180195, 0.032314915), (0.030090863, -0.0019134677, 0.032314915), (0.030376412, -0.0024353825, 0.032314915), (0.030724354, -0.0028637068, 0.032314915), (0.031121321, -0.0031819805, 0.032314915), (0.031552054, -0.0033779724, 0.032314915), (0.032, -0.0034441508, 0.032314915), (0.032447945, -0.0033779724, 0.032314915), (0.03287868, -0.0031819805, 0.032314915), (0.033275645, -0.0028637068, 0.032314915), (0.033623587, -0.0024353825, 0.032314915), (0.03390914, -0.0019134677, 0.032314915), (0.03412132, -0.0013180195, 0.032314915), (0.03425198, -0.0006719205, 0.032314915), (0.033170544, 0, 0.032827068), (0.03314805, 0.0003425421, 0.032827068), (0.03308144, 0.0006719205, 0.032827068), (0.03297327, 0.00097547733, 0.032827068), (0.032827698, 0.0012415472, 0.032827068), (0.032650318, 0.0014599051, 0.032827068), (0.032447945, 0.0016221595, 0.032827068), (0.03222836, 0.0017220754, 0.032827068), (0.032, 0.0017558128, 0.032827068), (0.031771637, 0.0017220754, 0.032827068), (0.031552054, 0.0016221595, 0.032827068), (0.03134968, 0.0014599051, 0.032827068), (0.031172302, 0.0012415472, 0.032827068), (0.03102673, 0.00097547733, 0.032827068), (0.03091856, 0.0006719205, 0.032827068), (0.030851949, 0.0003425421, 0.032827068), (0.030829458, 2.1502506e-19, 0.032827068), (0.030851949, -0.0003425421, 0.032827068), (0.03091856, -0.0006719205, 0.032827068), (0.03102673, -0.00097547733, 0.032827068), (0.031172302, -0.0012415472, 0.032827068), (0.03134968, -0.0014599051, 0.032827068), (0.031552054, -0.0016221595, 0.032827068), (0.031771637, -0.0017220754, 0.032827068), (0.032, -0.0017558128, 0.032827068), (0.03222836, -0.0017220754, 0.032827068), (0.032447945, -0.0016221595, 0.032827068), (0.032650318, -0.0014599051, 0.032827068), (0.032827698, -0.0012415472, 0.032827068), (0.03297327, -0.00097547733, 0.032827068), (0.03308144, -0.0006719205, 0.032827068), (0.03314805, -0.0003425421, 0.032827068), (0.032, 0, 0.033)]
        uniform token subdivisionScheme = "none"
    }

    def Mesh "Leaf" (
        prepend apiSchemas = ["MaterialBindingAPI"]
    )
    {
        uniform bool doubleSided = 1
        float3[] extent = [(0.006, -0.004, 0.047), (0.033, 0.01, 0.057)]
        int[] faceVertexCounts = [3]
        int[] faceVertexIndices = [0, 1, 2]
        rel material:binding = </Prop/Materials/FreshLeaf>
        point3f[] points = [(0.006, -0.004, 0.047), (0.033, 0.01, 0.057), (0.01, 0.009, 0.048)]
        uniform token subdivisionScheme = "none"
    }
}

